%TF.GenerationSoftware,KiCad,Pcbnew,5.1.8-db9833491~88~ubuntu18.04.1*%
%TF.CreationDate,2021-01-02T19:35:10+01:00*%
%TF.ProjectId,Breadboard_power_supply,42726561-6462-46f6-9172-645f706f7765,Rev A*%
%TF.SameCoordinates,Original*%
%TF.FileFunction,Copper,L1,Top*%
%TF.FilePolarity,Positive*%
%FSLAX46Y46*%
G04 Gerber Fmt 4.6, Leading zero omitted, Abs format (unit mm)*
G04 Created by KiCad (PCBNEW 5.1.8-db9833491~88~ubuntu18.04.1) date 2021-01-02 19:35:10*
%MOMM*%
%LPD*%
G01*
G04 APERTURE LIST*
%TA.AperFunction,ComponentPad*%
%ADD10R,1.600000X1.600000*%
%TD*%
%TA.AperFunction,ComponentPad*%
%ADD11C,1.600000*%
%TD*%
%TA.AperFunction,ComponentPad*%
%ADD12R,2.000000X2.000000*%
%TD*%
%TA.AperFunction,ComponentPad*%
%ADD13C,2.000000*%
%TD*%
%TA.AperFunction,ComponentPad*%
%ADD14O,2.200000X2.200000*%
%TD*%
%TA.AperFunction,ComponentPad*%
%ADD15R,2.200000X2.200000*%
%TD*%
%TA.AperFunction,ComponentPad*%
%ADD16C,1.800000*%
%TD*%
%TA.AperFunction,ComponentPad*%
%ADD17R,1.800000X1.800000*%
%TD*%
%TA.AperFunction,ComponentPad*%
%ADD18R,2.600000X2.600000*%
%TD*%
%TA.AperFunction,ComponentPad*%
%ADD19C,2.600000*%
%TD*%
%TA.AperFunction,ComponentPad*%
%ADD20R,1.700000X1.700000*%
%TD*%
%TA.AperFunction,ComponentPad*%
%ADD21O,1.700000X1.700000*%
%TD*%
%TA.AperFunction,ComponentPad*%
%ADD22O,1.600000X1.600000*%
%TD*%
%TA.AperFunction,ComponentPad*%
%ADD23R,1.900000X1.900000*%
%TD*%
%TA.AperFunction,ComponentPad*%
%ADD24C,1.900000*%
%TD*%
%TA.AperFunction,ComponentPad*%
%ADD25R,1.905000X2.000000*%
%TD*%
%TA.AperFunction,ComponentPad*%
%ADD26O,1.905000X2.000000*%
%TD*%
%TA.AperFunction,Conductor*%
%ADD27C,0.300000*%
%TD*%
%TA.AperFunction,Conductor*%
%ADD28C,0.250000*%
%TD*%
G04 APERTURE END LIST*
D10*
%TO.P,C1,1*%
%TO.N,/Vout1*%
X128016000Y-64262000D03*
D11*
%TO.P,C1,2*%
%TO.N,/V-*%
X130516000Y-64262000D03*
%TD*%
D12*
%TO.P,C2,1*%
%TO.N,/Vin*%
X116840000Y-66040000D03*
D13*
%TO.P,C2,2*%
%TO.N,/V-*%
X121840000Y-66040000D03*
%TD*%
D14*
%TO.P,D1,2*%
%TO.N,/bj_pin1*%
X116078000Y-92837000D03*
D15*
%TO.P,D1,1*%
%TO.N,/Vin*%
X126238000Y-92837000D03*
%TD*%
%TO.P,D2,1*%
%TO.N,/bj_pin1*%
X116078000Y-83439000D03*
D14*
%TO.P,D2,2*%
%TO.N,/V-*%
X126238000Y-83439000D03*
%TD*%
D15*
%TO.P,D3,1*%
%TO.N,/Vin*%
X116078000Y-97536000D03*
D14*
%TO.P,D3,2*%
%TO.N,/bj_pin2*%
X126238000Y-97536000D03*
%TD*%
%TO.P,D4,2*%
%TO.N,/V-*%
X126238000Y-88138000D03*
D15*
%TO.P,D4,1*%
%TO.N,/bj_pin2*%
X116078000Y-88138000D03*
%TD*%
D16*
%TO.P,D5,2*%
%TO.N,Net-(D5-Pad2)*%
X135509000Y-94361000D03*
D17*
%TO.P,D5,1*%
%TO.N,/V-*%
X132969000Y-94361000D03*
%TD*%
%TO.P,D6,1*%
%TO.N,/V-*%
X132969000Y-73025000D03*
D16*
%TO.P,D6,2*%
%TO.N,Net-(D6-Pad2)*%
X135509000Y-73025000D03*
%TD*%
D18*
%TO.P,J1,1*%
%TO.N,/bj_pin1*%
X127889000Y-105791000D03*
D19*
%TO.P,J1,2*%
%TO.N,/bj_pin2*%
X121889000Y-105791000D03*
%TO.P,J1,3*%
%TO.N,Net-(J1-Pad3)*%
X124889000Y-110491000D03*
%TD*%
D20*
%TO.P,J2,1*%
%TO.N,/Vout2*%
X139573000Y-62230000D03*
D21*
%TO.P,J2,2*%
X142113000Y-62230000D03*
%TO.P,J2,3*%
%TO.N,/V-*%
X139573000Y-64770000D03*
%TO.P,J2,4*%
X142113000Y-64770000D03*
%TD*%
%TO.P,J3,4*%
%TO.N,/V-*%
X142113000Y-109755000D03*
%TO.P,J3,3*%
X139573000Y-109755000D03*
%TO.P,J3,2*%
%TO.N,/Vout2*%
X142113000Y-107215000D03*
D20*
%TO.P,J3,1*%
X139573000Y-107215000D03*
%TD*%
D22*
%TO.P,R1,2*%
%TO.N,Net-(D5-Pad2)*%
X133350000Y-108839000D03*
D11*
%TO.P,R1,1*%
%TO.N,/Vout1*%
X133350000Y-101219000D03*
%TD*%
%TO.P,R2,1*%
%TO.N,/Vout2*%
X127635000Y-79502000D03*
D22*
%TO.P,R2,2*%
%TO.N,Net-(D6-Pad2)*%
X127635000Y-71882000D03*
%TD*%
D23*
%TO.P,SW1,1*%
%TO.N,/Vout2*%
X133858000Y-86073000D03*
D24*
%TO.P,SW1,2*%
%TO.N,/Vout1*%
X133858000Y-83573000D03*
%TO.P,SW1,3*%
%TO.N,Net-(SW1-Pad3)*%
X133858000Y-81073000D03*
%TD*%
D25*
%TO.P,U1,1*%
%TO.N,/Vin*%
X116967000Y-77343000D03*
D26*
%TO.P,U1,2*%
%TO.N,/V-*%
X119507000Y-77343000D03*
%TO.P,U1,3*%
%TO.N,/Vout1*%
X122047000Y-77343000D03*
%TD*%
D27*
%TO.N,/Vout1*%
X127707002Y-77343000D02*
X133858000Y-83493998D01*
X133858000Y-83493998D02*
X133858000Y-83573000D01*
X122047000Y-77343000D02*
X127707002Y-77343000D01*
X122047000Y-70231000D02*
X122047000Y-77343000D01*
X128016000Y-64262000D02*
X122047000Y-70231000D01*
X122436002Y-77343000D02*
X122047000Y-77343000D01*
X131618999Y-86525997D02*
X122436002Y-77343000D01*
X131618999Y-99487999D02*
X131618999Y-86525997D01*
X133350000Y-101219000D02*
X131618999Y-99487999D01*
%TO.N,/Vin*%
X116866001Y-77443999D02*
X116967000Y-77343000D01*
X116840000Y-77216000D02*
X116967000Y-77343000D01*
X116840000Y-66040000D02*
X116840000Y-77216000D01*
X114527999Y-79782001D02*
X116967000Y-77343000D01*
X114527999Y-95985999D02*
X114527999Y-79782001D01*
X116078000Y-97536000D02*
X114527999Y-95985999D01*
X129549001Y-107541001D02*
X129639001Y-107451001D01*
X116223998Y-97536000D02*
X126228999Y-107541001D01*
X129639001Y-96238001D02*
X126238000Y-92837000D01*
X129639001Y-107451001D02*
X129639001Y-96238001D01*
X126228999Y-107541001D02*
X129549001Y-107541001D01*
X116078000Y-97536000D02*
X116223998Y-97536000D01*
%TO.N,/bj_pin1*%
X117628001Y-94387001D02*
X116078000Y-92837000D01*
X125383003Y-94387001D02*
X117628001Y-94387001D01*
X127889000Y-96892998D02*
X125383003Y-94387001D01*
X127889000Y-105791000D02*
X127889000Y-96892998D01*
X117628001Y-84989001D02*
X116078000Y-83439000D01*
X117628001Y-91286999D02*
X117628001Y-84989001D01*
X116078000Y-92837000D02*
X117628001Y-91286999D01*
D28*
%TO.N,Net-(D5-Pad2)*%
X135509000Y-106680000D02*
X135509000Y-94361000D01*
X133350000Y-108839000D02*
X135509000Y-106680000D01*
%TO.N,Net-(D6-Pad2)*%
X133566001Y-71082001D02*
X135509000Y-73025000D01*
X128434999Y-71082001D02*
X133566001Y-71082001D01*
X127635000Y-71882000D02*
X128434999Y-71082001D01*
D27*
%TO.N,/Vout2*%
X142113000Y-107215000D02*
X139573000Y-107215000D01*
X136859001Y-105651001D02*
X136859001Y-89074001D01*
X138423000Y-107215000D02*
X136859001Y-105651001D01*
X136859001Y-89074001D02*
X133858000Y-86073000D01*
X139573000Y-107215000D02*
X138423000Y-107215000D01*
X133455630Y-86073000D02*
X133858000Y-86073000D01*
X142113000Y-62230000D02*
X139573000Y-62230000D01*
X136859001Y-83071999D02*
X133858000Y-86073000D01*
X136859001Y-64943999D02*
X136859001Y-83071999D01*
X139573000Y-62230000D02*
X136859001Y-64943999D01*
X133858000Y-85725000D02*
X127635000Y-79502000D01*
X133858000Y-86073000D02*
X133858000Y-85725000D01*
%TD*%
M02*
