%TF.GenerationSoftware,KiCad,Pcbnew,5.1.8-db9833491~88~ubuntu18.04.1*%
%TF.CreationDate,2021-01-02T19:35:10+01:00*%
%TF.ProjectId,Breadboard_power_supply,42726561-6462-46f6-9172-645f706f7765,Rev A*%
%TF.SameCoordinates,Original*%
%TF.FileFunction,Copper,L2,Bot*%
%TF.FilePolarity,Positive*%
%FSLAX46Y46*%
G04 Gerber Fmt 4.6, Leading zero omitted, Abs format (unit mm)*
G04 Created by KiCad (PCBNEW 5.1.8-db9833491~88~ubuntu18.04.1) date 2021-01-02 19:35:10*
%MOMM*%
%LPD*%
G01*
G04 APERTURE LIST*
%TA.AperFunction,ComponentPad*%
%ADD10R,1.600000X1.600000*%
%TD*%
%TA.AperFunction,ComponentPad*%
%ADD11C,1.600000*%
%TD*%
%TA.AperFunction,ComponentPad*%
%ADD12R,2.000000X2.000000*%
%TD*%
%TA.AperFunction,ComponentPad*%
%ADD13C,2.000000*%
%TD*%
%TA.AperFunction,ComponentPad*%
%ADD14O,2.200000X2.200000*%
%TD*%
%TA.AperFunction,ComponentPad*%
%ADD15R,2.200000X2.200000*%
%TD*%
%TA.AperFunction,ComponentPad*%
%ADD16C,1.800000*%
%TD*%
%TA.AperFunction,ComponentPad*%
%ADD17R,1.800000X1.800000*%
%TD*%
%TA.AperFunction,ComponentPad*%
%ADD18R,2.600000X2.600000*%
%TD*%
%TA.AperFunction,ComponentPad*%
%ADD19C,2.600000*%
%TD*%
%TA.AperFunction,ComponentPad*%
%ADD20R,1.700000X1.700000*%
%TD*%
%TA.AperFunction,ComponentPad*%
%ADD21O,1.700000X1.700000*%
%TD*%
%TA.AperFunction,ComponentPad*%
%ADD22O,1.600000X1.600000*%
%TD*%
%TA.AperFunction,ComponentPad*%
%ADD23R,1.900000X1.900000*%
%TD*%
%TA.AperFunction,ComponentPad*%
%ADD24C,1.900000*%
%TD*%
%TA.AperFunction,ComponentPad*%
%ADD25R,1.905000X2.000000*%
%TD*%
%TA.AperFunction,ComponentPad*%
%ADD26O,1.905000X2.000000*%
%TD*%
%TA.AperFunction,Conductor*%
%ADD27C,0.300000*%
%TD*%
%TA.AperFunction,Conductor*%
%ADD28C,0.254000*%
%TD*%
%TA.AperFunction,Conductor*%
%ADD29C,0.100000*%
%TD*%
G04 APERTURE END LIST*
D10*
%TO.P,C1,1*%
%TO.N,/Vout1*%
X128016000Y-64262000D03*
D11*
%TO.P,C1,2*%
%TO.N,/V-*%
X130516000Y-64262000D03*
%TD*%
D12*
%TO.P,C2,1*%
%TO.N,/Vin*%
X116840000Y-66040000D03*
D13*
%TO.P,C2,2*%
%TO.N,/V-*%
X121840000Y-66040000D03*
%TD*%
D14*
%TO.P,D1,2*%
%TO.N,/bj_pin1*%
X116078000Y-92837000D03*
D15*
%TO.P,D1,1*%
%TO.N,/Vin*%
X126238000Y-92837000D03*
%TD*%
%TO.P,D2,1*%
%TO.N,/bj_pin1*%
X116078000Y-83439000D03*
D14*
%TO.P,D2,2*%
%TO.N,/V-*%
X126238000Y-83439000D03*
%TD*%
D15*
%TO.P,D3,1*%
%TO.N,/Vin*%
X116078000Y-97536000D03*
D14*
%TO.P,D3,2*%
%TO.N,/bj_pin2*%
X126238000Y-97536000D03*
%TD*%
%TO.P,D4,2*%
%TO.N,/V-*%
X126238000Y-88138000D03*
D15*
%TO.P,D4,1*%
%TO.N,/bj_pin2*%
X116078000Y-88138000D03*
%TD*%
D16*
%TO.P,D5,2*%
%TO.N,Net-(D5-Pad2)*%
X135509000Y-94361000D03*
D17*
%TO.P,D5,1*%
%TO.N,/V-*%
X132969000Y-94361000D03*
%TD*%
%TO.P,D6,1*%
%TO.N,/V-*%
X132969000Y-73025000D03*
D16*
%TO.P,D6,2*%
%TO.N,Net-(D6-Pad2)*%
X135509000Y-73025000D03*
%TD*%
D18*
%TO.P,J1,1*%
%TO.N,/bj_pin1*%
X127889000Y-105791000D03*
D19*
%TO.P,J1,2*%
%TO.N,/bj_pin2*%
X121889000Y-105791000D03*
%TO.P,J1,3*%
%TO.N,Net-(J1-Pad3)*%
X124889000Y-110491000D03*
%TD*%
D20*
%TO.P,J2,1*%
%TO.N,/Vout2*%
X139573000Y-62230000D03*
D21*
%TO.P,J2,2*%
X142113000Y-62230000D03*
%TO.P,J2,3*%
%TO.N,/V-*%
X139573000Y-64770000D03*
%TO.P,J2,4*%
X142113000Y-64770000D03*
%TD*%
%TO.P,J3,4*%
%TO.N,/V-*%
X142113000Y-109755000D03*
%TO.P,J3,3*%
X139573000Y-109755000D03*
%TO.P,J3,2*%
%TO.N,/Vout2*%
X142113000Y-107215000D03*
D20*
%TO.P,J3,1*%
X139573000Y-107215000D03*
%TD*%
D22*
%TO.P,R1,2*%
%TO.N,Net-(D5-Pad2)*%
X133350000Y-108839000D03*
D11*
%TO.P,R1,1*%
%TO.N,/Vout1*%
X133350000Y-101219000D03*
%TD*%
%TO.P,R2,1*%
%TO.N,/Vout2*%
X127635000Y-79502000D03*
D22*
%TO.P,R2,2*%
%TO.N,Net-(D6-Pad2)*%
X127635000Y-71882000D03*
%TD*%
D23*
%TO.P,SW1,1*%
%TO.N,/Vout2*%
X133858000Y-86073000D03*
D24*
%TO.P,SW1,2*%
%TO.N,/Vout1*%
X133858000Y-83573000D03*
%TO.P,SW1,3*%
%TO.N,Net-(SW1-Pad3)*%
X133858000Y-81073000D03*
%TD*%
D25*
%TO.P,U1,1*%
%TO.N,/Vin*%
X116967000Y-77343000D03*
D26*
%TO.P,U1,2*%
%TO.N,/V-*%
X119507000Y-77343000D03*
%TO.P,U1,3*%
%TO.N,/Vout1*%
X122047000Y-77343000D03*
%TD*%
D27*
%TO.N,/V-*%
X142113000Y-109755000D02*
X139573000Y-109755000D01*
X134600001Y-95992001D02*
X132969000Y-94361000D01*
X134600001Y-104782001D02*
X134600001Y-95992001D01*
X139573000Y-109755000D02*
X134600001Y-104782001D01*
X119507000Y-77597000D02*
X119507000Y-77343000D01*
X139573000Y-64770000D02*
X142113000Y-64770000D01*
X131024000Y-64770000D02*
X130516000Y-64262000D01*
X139573000Y-64770000D02*
X131024000Y-64770000D01*
X119507000Y-68373000D02*
X121840000Y-66040000D01*
X119507000Y-77343000D02*
X119507000Y-68373000D01*
X132969000Y-73025000D02*
X132969000Y-71755000D01*
X130516000Y-69302000D02*
X130516000Y-64262000D01*
X132969000Y-71755000D02*
X130516000Y-69302000D01*
X126238000Y-88138000D02*
X126238000Y-83439000D01*
X132461000Y-94361000D02*
X126238000Y-88138000D01*
X132969000Y-94361000D02*
X132461000Y-94361000D01*
X132969000Y-76708000D02*
X132969000Y-73025000D01*
X126238000Y-83439000D02*
X132969000Y-76708000D01*
X125603000Y-83439000D02*
X119507000Y-77343000D01*
X126238000Y-83439000D02*
X125603000Y-83439000D01*
%TO.N,/bj_pin1*%
X115570000Y-83820000D02*
X115316000Y-83566000D01*
%TO.N,/bj_pin2*%
X116162666Y-88222666D02*
X115316000Y-88222666D01*
X121889000Y-101885000D02*
X126238000Y-97536000D01*
X121889000Y-105791000D02*
X121889000Y-101885000D01*
X116840000Y-88138000D02*
X116078000Y-88138000D01*
X126238000Y-97536000D02*
X116840000Y-88138000D01*
%TD*%
D28*
%TO.N,/V-*%
X138271815Y-60928815D02*
X138192463Y-61025506D01*
X138133498Y-61135820D01*
X138097188Y-61255518D01*
X138084928Y-61380000D01*
X138084928Y-63080000D01*
X138097188Y-63204482D01*
X138133498Y-63324180D01*
X138192463Y-63434494D01*
X138271815Y-63531185D01*
X138368506Y-63610537D01*
X138478820Y-63669502D01*
X138559466Y-63693966D01*
X138475412Y-63769731D01*
X138301359Y-64003080D01*
X138176175Y-64265901D01*
X138131524Y-64413110D01*
X138252845Y-64643000D01*
X139446000Y-64643000D01*
X139446000Y-64623000D01*
X139700000Y-64623000D01*
X139700000Y-64643000D01*
X141986000Y-64643000D01*
X141986000Y-64623000D01*
X142240000Y-64623000D01*
X142240000Y-64643000D01*
X142260000Y-64643000D01*
X142260000Y-64897000D01*
X142240000Y-64897000D01*
X142240000Y-66090814D01*
X142469891Y-66211481D01*
X142744252Y-66114157D01*
X142994355Y-65965178D01*
X143210588Y-65770269D01*
X143358001Y-65572636D01*
X143358001Y-66396000D01*
X137827419Y-66396000D01*
X137795000Y-66392807D01*
X137762581Y-66396000D01*
X137665617Y-66405550D01*
X137541207Y-66443290D01*
X137426550Y-66504575D01*
X137326052Y-66587052D01*
X137243575Y-66687550D01*
X137182290Y-66802207D01*
X137144550Y-66926617D01*
X137131807Y-67056000D01*
X137135001Y-67088429D01*
X137135000Y-105250581D01*
X137131807Y-105283000D01*
X137144550Y-105412383D01*
X137182290Y-105536793D01*
X137243575Y-105651450D01*
X137305519Y-105726928D01*
X137326052Y-105751948D01*
X137426550Y-105834425D01*
X137541207Y-105895710D01*
X137665617Y-105933450D01*
X137795000Y-105946193D01*
X137827419Y-105943000D01*
X138247864Y-105943000D01*
X138192463Y-106010506D01*
X138133498Y-106120820D01*
X138097188Y-106240518D01*
X138084928Y-106365000D01*
X138084928Y-108065000D01*
X138097188Y-108189482D01*
X138133498Y-108309180D01*
X138192463Y-108419494D01*
X138271815Y-108516185D01*
X138368506Y-108595537D01*
X138478820Y-108654502D01*
X138559466Y-108678966D01*
X138475412Y-108754731D01*
X138301359Y-108988080D01*
X138176175Y-109250901D01*
X138131524Y-109398110D01*
X138252845Y-109628000D01*
X139446000Y-109628000D01*
X139446000Y-109608000D01*
X139700000Y-109608000D01*
X139700000Y-109628000D01*
X141986000Y-109628000D01*
X141986000Y-109608000D01*
X142240000Y-109608000D01*
X142240000Y-109628000D01*
X142260000Y-109628000D01*
X142260000Y-109882000D01*
X142240000Y-109882000D01*
X142240000Y-111075814D01*
X142469891Y-111196481D01*
X142744252Y-111099157D01*
X142994355Y-110950178D01*
X143210588Y-110755269D01*
X143358000Y-110557637D01*
X143358000Y-111608000D01*
X126469850Y-111608000D01*
X126603775Y-111407566D01*
X126749639Y-111055419D01*
X126824000Y-110681581D01*
X126824000Y-110300419D01*
X126749639Y-109926581D01*
X126603775Y-109574434D01*
X126392013Y-109257509D01*
X126122491Y-108987987D01*
X125805566Y-108776225D01*
X125615906Y-108697665D01*
X131915000Y-108697665D01*
X131915000Y-108980335D01*
X131970147Y-109257574D01*
X132078320Y-109518727D01*
X132235363Y-109753759D01*
X132435241Y-109953637D01*
X132670273Y-110110680D01*
X132931426Y-110218853D01*
X133208665Y-110274000D01*
X133491335Y-110274000D01*
X133768574Y-110218853D01*
X134026805Y-110111890D01*
X138131524Y-110111890D01*
X138176175Y-110259099D01*
X138301359Y-110521920D01*
X138475412Y-110755269D01*
X138691645Y-110950178D01*
X138941748Y-111099157D01*
X139216109Y-111196481D01*
X139446000Y-111075814D01*
X139446000Y-109882000D01*
X139700000Y-109882000D01*
X139700000Y-111075814D01*
X139929891Y-111196481D01*
X140204252Y-111099157D01*
X140454355Y-110950178D01*
X140670588Y-110755269D01*
X140843000Y-110524120D01*
X141015412Y-110755269D01*
X141231645Y-110950178D01*
X141481748Y-111099157D01*
X141756109Y-111196481D01*
X141986000Y-111075814D01*
X141986000Y-109882000D01*
X139700000Y-109882000D01*
X139446000Y-109882000D01*
X138252845Y-109882000D01*
X138131524Y-110111890D01*
X134026805Y-110111890D01*
X134029727Y-110110680D01*
X134264759Y-109953637D01*
X134464637Y-109753759D01*
X134621680Y-109518727D01*
X134729853Y-109257574D01*
X134785000Y-108980335D01*
X134785000Y-108697665D01*
X134729853Y-108420426D01*
X134621680Y-108159273D01*
X134464637Y-107924241D01*
X134264759Y-107724363D01*
X134029727Y-107567320D01*
X133768574Y-107459147D01*
X133491335Y-107404000D01*
X133208665Y-107404000D01*
X132931426Y-107459147D01*
X132670273Y-107567320D01*
X132435241Y-107724363D01*
X132235363Y-107924241D01*
X132078320Y-108159273D01*
X131970147Y-108420426D01*
X131915000Y-108697665D01*
X125615906Y-108697665D01*
X125453419Y-108630361D01*
X125079581Y-108556000D01*
X124698419Y-108556000D01*
X124324581Y-108630361D01*
X123972434Y-108776225D01*
X123655509Y-108987987D01*
X123385987Y-109257509D01*
X123174225Y-109574434D01*
X123028361Y-109926581D01*
X122954000Y-110300419D01*
X122954000Y-110681581D01*
X123028361Y-111055419D01*
X123174225Y-111407566D01*
X123308150Y-111608000D01*
X114198000Y-111608000D01*
X114198000Y-96436000D01*
X114339928Y-96436000D01*
X114339928Y-98636000D01*
X114352188Y-98760482D01*
X114388498Y-98880180D01*
X114447463Y-98990494D01*
X114526815Y-99087185D01*
X114623506Y-99166537D01*
X114733820Y-99225502D01*
X114853518Y-99261812D01*
X114978000Y-99274072D01*
X117178000Y-99274072D01*
X117302482Y-99261812D01*
X117422180Y-99225502D01*
X117532494Y-99166537D01*
X117629185Y-99087185D01*
X117708537Y-98990494D01*
X117767502Y-98880180D01*
X117803812Y-98760482D01*
X117816072Y-98636000D01*
X117816072Y-96436000D01*
X117803812Y-96311518D01*
X117767502Y-96191820D01*
X117708537Y-96081506D01*
X117629185Y-95984815D01*
X117532494Y-95905463D01*
X117422180Y-95846498D01*
X117302482Y-95810188D01*
X117178000Y-95797928D01*
X114978000Y-95797928D01*
X114853518Y-95810188D01*
X114733820Y-95846498D01*
X114623506Y-95905463D01*
X114526815Y-95984815D01*
X114447463Y-96081506D01*
X114388498Y-96191820D01*
X114352188Y-96311518D01*
X114339928Y-96436000D01*
X114198000Y-96436000D01*
X114198000Y-92666117D01*
X114343000Y-92666117D01*
X114343000Y-93007883D01*
X114409675Y-93343081D01*
X114540463Y-93658831D01*
X114730337Y-93942998D01*
X114972002Y-94184663D01*
X115256169Y-94374537D01*
X115571919Y-94505325D01*
X115907117Y-94572000D01*
X116248883Y-94572000D01*
X116584081Y-94505325D01*
X116899831Y-94374537D01*
X117183998Y-94184663D01*
X117425663Y-93942998D01*
X117615537Y-93658831D01*
X117746325Y-93343081D01*
X117813000Y-93007883D01*
X117813000Y-92666117D01*
X117746325Y-92330919D01*
X117615537Y-92015169D01*
X117425663Y-91731002D01*
X117183998Y-91489337D01*
X116899831Y-91299463D01*
X116584081Y-91168675D01*
X116248883Y-91102000D01*
X115907117Y-91102000D01*
X115571919Y-91168675D01*
X115256169Y-91299463D01*
X114972002Y-91489337D01*
X114730337Y-91731002D01*
X114540463Y-92015169D01*
X114409675Y-92330919D01*
X114343000Y-92666117D01*
X114198000Y-92666117D01*
X114198000Y-87038000D01*
X114339928Y-87038000D01*
X114339928Y-89238000D01*
X114352188Y-89362482D01*
X114388498Y-89482180D01*
X114447463Y-89592494D01*
X114526815Y-89689185D01*
X114623506Y-89768537D01*
X114733820Y-89827502D01*
X114853518Y-89863812D01*
X114978000Y-89876072D01*
X117178000Y-89876072D01*
X117302482Y-89863812D01*
X117420005Y-89828162D01*
X124584931Y-96993089D01*
X124569675Y-97029919D01*
X124503000Y-97365117D01*
X124503000Y-97706883D01*
X124569675Y-98042081D01*
X124584931Y-98078912D01*
X121361185Y-101302658D01*
X121331237Y-101327236D01*
X121306659Y-101357184D01*
X121306655Y-101357188D01*
X121273690Y-101397356D01*
X121233139Y-101446767D01*
X121194177Y-101519660D01*
X121160246Y-101583141D01*
X121115359Y-101731114D01*
X121100203Y-101885000D01*
X121104001Y-101923563D01*
X121104000Y-104021728D01*
X120972434Y-104076225D01*
X120655509Y-104287987D01*
X120385987Y-104557509D01*
X120174225Y-104874434D01*
X120028361Y-105226581D01*
X119954000Y-105600419D01*
X119954000Y-105981581D01*
X120028361Y-106355419D01*
X120174225Y-106707566D01*
X120385987Y-107024491D01*
X120655509Y-107294013D01*
X120972434Y-107505775D01*
X121324581Y-107651639D01*
X121698419Y-107726000D01*
X122079581Y-107726000D01*
X122453419Y-107651639D01*
X122805566Y-107505775D01*
X123122491Y-107294013D01*
X123392013Y-107024491D01*
X123603775Y-106707566D01*
X123749639Y-106355419D01*
X123824000Y-105981581D01*
X123824000Y-105600419D01*
X123749639Y-105226581D01*
X123603775Y-104874434D01*
X123392013Y-104557509D01*
X123325504Y-104491000D01*
X125950928Y-104491000D01*
X125950928Y-107091000D01*
X125963188Y-107215482D01*
X125999498Y-107335180D01*
X126058463Y-107445494D01*
X126137815Y-107542185D01*
X126234506Y-107621537D01*
X126344820Y-107680502D01*
X126464518Y-107716812D01*
X126589000Y-107729072D01*
X129189000Y-107729072D01*
X129313482Y-107716812D01*
X129433180Y-107680502D01*
X129543494Y-107621537D01*
X129640185Y-107542185D01*
X129719537Y-107445494D01*
X129778502Y-107335180D01*
X129814812Y-107215482D01*
X129827072Y-107091000D01*
X129827072Y-104491000D01*
X129814812Y-104366518D01*
X129778502Y-104246820D01*
X129719537Y-104136506D01*
X129640185Y-104039815D01*
X129543494Y-103960463D01*
X129433180Y-103901498D01*
X129313482Y-103865188D01*
X129189000Y-103852928D01*
X126589000Y-103852928D01*
X126464518Y-103865188D01*
X126344820Y-103901498D01*
X126234506Y-103960463D01*
X126137815Y-104039815D01*
X126058463Y-104136506D01*
X125999498Y-104246820D01*
X125963188Y-104366518D01*
X125950928Y-104491000D01*
X123325504Y-104491000D01*
X123122491Y-104287987D01*
X122805566Y-104076225D01*
X122674000Y-104021729D01*
X122674000Y-102210157D01*
X123806492Y-101077665D01*
X131915000Y-101077665D01*
X131915000Y-101360335D01*
X131970147Y-101637574D01*
X132078320Y-101898727D01*
X132235363Y-102133759D01*
X132435241Y-102333637D01*
X132670273Y-102490680D01*
X132931426Y-102598853D01*
X133208665Y-102654000D01*
X133491335Y-102654000D01*
X133768574Y-102598853D01*
X134029727Y-102490680D01*
X134264759Y-102333637D01*
X134464637Y-102133759D01*
X134621680Y-101898727D01*
X134729853Y-101637574D01*
X134785000Y-101360335D01*
X134785000Y-101077665D01*
X134729853Y-100800426D01*
X134621680Y-100539273D01*
X134464637Y-100304241D01*
X134264759Y-100104363D01*
X134029727Y-99947320D01*
X133768574Y-99839147D01*
X133491335Y-99784000D01*
X133208665Y-99784000D01*
X132931426Y-99839147D01*
X132670273Y-99947320D01*
X132435241Y-100104363D01*
X132235363Y-100304241D01*
X132078320Y-100539273D01*
X131970147Y-100800426D01*
X131915000Y-101077665D01*
X123806492Y-101077665D01*
X125695088Y-99189069D01*
X125731919Y-99204325D01*
X126067117Y-99271000D01*
X126408883Y-99271000D01*
X126744081Y-99204325D01*
X127059831Y-99073537D01*
X127343998Y-98883663D01*
X127585663Y-98641998D01*
X127775537Y-98357831D01*
X127906325Y-98042081D01*
X127973000Y-97706883D01*
X127973000Y-97365117D01*
X127906325Y-97029919D01*
X127775537Y-96714169D01*
X127585663Y-96430002D01*
X127343998Y-96188337D01*
X127059831Y-95998463D01*
X126744081Y-95867675D01*
X126408883Y-95801000D01*
X126067117Y-95801000D01*
X125731919Y-95867675D01*
X125695089Y-95882931D01*
X125073158Y-95261000D01*
X131430928Y-95261000D01*
X131443188Y-95385482D01*
X131479498Y-95505180D01*
X131538463Y-95615494D01*
X131617815Y-95712185D01*
X131714506Y-95791537D01*
X131824820Y-95850502D01*
X131944518Y-95886812D01*
X132069000Y-95899072D01*
X132683250Y-95896000D01*
X132842000Y-95737250D01*
X132842000Y-94488000D01*
X131592750Y-94488000D01*
X131434000Y-94646750D01*
X131430928Y-95261000D01*
X125073158Y-95261000D01*
X121549158Y-91737000D01*
X124499928Y-91737000D01*
X124499928Y-93937000D01*
X124512188Y-94061482D01*
X124548498Y-94181180D01*
X124607463Y-94291494D01*
X124686815Y-94388185D01*
X124783506Y-94467537D01*
X124893820Y-94526502D01*
X125013518Y-94562812D01*
X125138000Y-94575072D01*
X127338000Y-94575072D01*
X127462482Y-94562812D01*
X127582180Y-94526502D01*
X127692494Y-94467537D01*
X127789185Y-94388185D01*
X127868537Y-94291494D01*
X127927502Y-94181180D01*
X127963812Y-94061482D01*
X127976072Y-93937000D01*
X127976072Y-93461000D01*
X131430928Y-93461000D01*
X131434000Y-94075250D01*
X131592750Y-94234000D01*
X132842000Y-94234000D01*
X132842000Y-92984750D01*
X133096000Y-92984750D01*
X133096000Y-94234000D01*
X133116000Y-94234000D01*
X133116000Y-94488000D01*
X133096000Y-94488000D01*
X133096000Y-95737250D01*
X133254750Y-95896000D01*
X133869000Y-95899072D01*
X133993482Y-95886812D01*
X134113180Y-95850502D01*
X134223494Y-95791537D01*
X134320185Y-95712185D01*
X134399537Y-95615494D01*
X134458502Y-95505180D01*
X134464056Y-95486873D01*
X134530495Y-95553312D01*
X134781905Y-95721299D01*
X135061257Y-95837011D01*
X135357816Y-95896000D01*
X135660184Y-95896000D01*
X135956743Y-95837011D01*
X136236095Y-95721299D01*
X136487505Y-95553312D01*
X136701312Y-95339505D01*
X136869299Y-95088095D01*
X136985011Y-94808743D01*
X137044000Y-94512184D01*
X137044000Y-94209816D01*
X136985011Y-93913257D01*
X136869299Y-93633905D01*
X136701312Y-93382495D01*
X136487505Y-93168688D01*
X136236095Y-93000701D01*
X135956743Y-92884989D01*
X135660184Y-92826000D01*
X135357816Y-92826000D01*
X135061257Y-92884989D01*
X134781905Y-93000701D01*
X134530495Y-93168688D01*
X134464056Y-93235127D01*
X134458502Y-93216820D01*
X134399537Y-93106506D01*
X134320185Y-93009815D01*
X134223494Y-92930463D01*
X134113180Y-92871498D01*
X133993482Y-92835188D01*
X133869000Y-92822928D01*
X133254750Y-92826000D01*
X133096000Y-92984750D01*
X132842000Y-92984750D01*
X132683250Y-92826000D01*
X132069000Y-92822928D01*
X131944518Y-92835188D01*
X131824820Y-92871498D01*
X131714506Y-92930463D01*
X131617815Y-93009815D01*
X131538463Y-93106506D01*
X131479498Y-93216820D01*
X131443188Y-93336518D01*
X131430928Y-93461000D01*
X127976072Y-93461000D01*
X127976072Y-91737000D01*
X127963812Y-91612518D01*
X127927502Y-91492820D01*
X127868537Y-91382506D01*
X127789185Y-91285815D01*
X127692494Y-91206463D01*
X127582180Y-91147498D01*
X127462482Y-91111188D01*
X127338000Y-91098928D01*
X125138000Y-91098928D01*
X125013518Y-91111188D01*
X124893820Y-91147498D01*
X124783506Y-91206463D01*
X124686815Y-91285815D01*
X124607463Y-91382506D01*
X124548498Y-91492820D01*
X124512188Y-91612518D01*
X124499928Y-91737000D01*
X121549158Y-91737000D01*
X118346280Y-88534122D01*
X124548825Y-88534122D01*
X124613425Y-88747094D01*
X124763469Y-89052329D01*
X124970178Y-89322427D01*
X125225609Y-89547008D01*
X125519946Y-89717442D01*
X125841877Y-89827179D01*
X126111000Y-89709600D01*
X126111000Y-88265000D01*
X126365000Y-88265000D01*
X126365000Y-89709600D01*
X126634123Y-89827179D01*
X126956054Y-89717442D01*
X127250391Y-89547008D01*
X127505822Y-89322427D01*
X127712531Y-89052329D01*
X127862575Y-88747094D01*
X127927175Y-88534122D01*
X127809125Y-88265000D01*
X126365000Y-88265000D01*
X126111000Y-88265000D01*
X124666875Y-88265000D01*
X124548825Y-88534122D01*
X118346280Y-88534122D01*
X117816072Y-88003915D01*
X117816072Y-87741878D01*
X124548825Y-87741878D01*
X124666875Y-88011000D01*
X126111000Y-88011000D01*
X126111000Y-86566400D01*
X126365000Y-86566400D01*
X126365000Y-88011000D01*
X127809125Y-88011000D01*
X127927175Y-87741878D01*
X127862575Y-87528906D01*
X127712531Y-87223671D01*
X127505822Y-86953573D01*
X127250391Y-86728992D01*
X126956054Y-86558558D01*
X126634123Y-86448821D01*
X126365000Y-86566400D01*
X126111000Y-86566400D01*
X125841877Y-86448821D01*
X125519946Y-86558558D01*
X125225609Y-86728992D01*
X124970178Y-86953573D01*
X124763469Y-87223671D01*
X124613425Y-87528906D01*
X124548825Y-87741878D01*
X117816072Y-87741878D01*
X117816072Y-87038000D01*
X117803812Y-86913518D01*
X117767502Y-86793820D01*
X117708537Y-86683506D01*
X117629185Y-86586815D01*
X117532494Y-86507463D01*
X117422180Y-86448498D01*
X117302482Y-86412188D01*
X117178000Y-86399928D01*
X114978000Y-86399928D01*
X114853518Y-86412188D01*
X114733820Y-86448498D01*
X114623506Y-86507463D01*
X114526815Y-86586815D01*
X114447463Y-86683506D01*
X114388498Y-86793820D01*
X114352188Y-86913518D01*
X114339928Y-87038000D01*
X114198000Y-87038000D01*
X114198000Y-82339000D01*
X114339928Y-82339000D01*
X114339928Y-84539000D01*
X114352188Y-84663482D01*
X114388498Y-84783180D01*
X114447463Y-84893494D01*
X114526815Y-84990185D01*
X114623506Y-85069537D01*
X114733820Y-85128502D01*
X114853518Y-85164812D01*
X114978000Y-85177072D01*
X117178000Y-85177072D01*
X117302482Y-85164812D01*
X117422180Y-85128502D01*
X117532494Y-85069537D01*
X117629185Y-84990185D01*
X117708537Y-84893494D01*
X117767502Y-84783180D01*
X117803812Y-84663482D01*
X117816072Y-84539000D01*
X117816072Y-83835122D01*
X124548825Y-83835122D01*
X124613425Y-84048094D01*
X124763469Y-84353329D01*
X124970178Y-84623427D01*
X125225609Y-84848008D01*
X125519946Y-85018442D01*
X125841877Y-85128179D01*
X126111000Y-85010600D01*
X126111000Y-83566000D01*
X126365000Y-83566000D01*
X126365000Y-85010600D01*
X126634123Y-85128179D01*
X126649316Y-85123000D01*
X132269928Y-85123000D01*
X132269928Y-87023000D01*
X132282188Y-87147482D01*
X132318498Y-87267180D01*
X132377463Y-87377494D01*
X132456815Y-87474185D01*
X132553506Y-87553537D01*
X132663820Y-87612502D01*
X132783518Y-87648812D01*
X132908000Y-87661072D01*
X134808000Y-87661072D01*
X134932482Y-87648812D01*
X135052180Y-87612502D01*
X135162494Y-87553537D01*
X135259185Y-87474185D01*
X135338537Y-87377494D01*
X135397502Y-87267180D01*
X135433812Y-87147482D01*
X135446072Y-87023000D01*
X135446072Y-85123000D01*
X135433812Y-84998518D01*
X135397502Y-84878820D01*
X135338537Y-84768506D01*
X135259185Y-84671815D01*
X135162494Y-84592463D01*
X135103979Y-84561186D01*
X135262609Y-84323779D01*
X135382089Y-84035327D01*
X135443000Y-83729109D01*
X135443000Y-83416891D01*
X135382089Y-83110673D01*
X135262609Y-82822221D01*
X135089150Y-82562621D01*
X134868379Y-82341850D01*
X134840168Y-82323000D01*
X134868379Y-82304150D01*
X135089150Y-82083379D01*
X135262609Y-81823779D01*
X135382089Y-81535327D01*
X135443000Y-81229109D01*
X135443000Y-80916891D01*
X135382089Y-80610673D01*
X135262609Y-80322221D01*
X135089150Y-80062621D01*
X134868379Y-79841850D01*
X134608779Y-79668391D01*
X134320327Y-79548911D01*
X134014109Y-79488000D01*
X133701891Y-79488000D01*
X133395673Y-79548911D01*
X133107221Y-79668391D01*
X132847621Y-79841850D01*
X132626850Y-80062621D01*
X132453391Y-80322221D01*
X132333911Y-80610673D01*
X132273000Y-80916891D01*
X132273000Y-81229109D01*
X132333911Y-81535327D01*
X132453391Y-81823779D01*
X132626850Y-82083379D01*
X132847621Y-82304150D01*
X132875832Y-82323000D01*
X132847621Y-82341850D01*
X132626850Y-82562621D01*
X132453391Y-82822221D01*
X132333911Y-83110673D01*
X132273000Y-83416891D01*
X132273000Y-83729109D01*
X132333911Y-84035327D01*
X132453391Y-84323779D01*
X132612021Y-84561186D01*
X132553506Y-84592463D01*
X132456815Y-84671815D01*
X132377463Y-84768506D01*
X132318498Y-84878820D01*
X132282188Y-84998518D01*
X132269928Y-85123000D01*
X126649316Y-85123000D01*
X126956054Y-85018442D01*
X127250391Y-84848008D01*
X127505822Y-84623427D01*
X127712531Y-84353329D01*
X127862575Y-84048094D01*
X127927175Y-83835122D01*
X127809125Y-83566000D01*
X126365000Y-83566000D01*
X126111000Y-83566000D01*
X124666875Y-83566000D01*
X124548825Y-83835122D01*
X117816072Y-83835122D01*
X117816072Y-83042878D01*
X124548825Y-83042878D01*
X124666875Y-83312000D01*
X126111000Y-83312000D01*
X126111000Y-81867400D01*
X126365000Y-81867400D01*
X126365000Y-83312000D01*
X127809125Y-83312000D01*
X127927175Y-83042878D01*
X127862575Y-82829906D01*
X127712531Y-82524671D01*
X127505822Y-82254573D01*
X127250391Y-82029992D01*
X126956054Y-81859558D01*
X126634123Y-81749821D01*
X126365000Y-81867400D01*
X126111000Y-81867400D01*
X125841877Y-81749821D01*
X125519946Y-81859558D01*
X125225609Y-82029992D01*
X124970178Y-82254573D01*
X124763469Y-82524671D01*
X124613425Y-82829906D01*
X124548825Y-83042878D01*
X117816072Y-83042878D01*
X117816072Y-82339000D01*
X117803812Y-82214518D01*
X117767502Y-82094820D01*
X117708537Y-81984506D01*
X117629185Y-81887815D01*
X117532494Y-81808463D01*
X117422180Y-81749498D01*
X117302482Y-81713188D01*
X117178000Y-81700928D01*
X114978000Y-81700928D01*
X114853518Y-81713188D01*
X114733820Y-81749498D01*
X114623506Y-81808463D01*
X114526815Y-81887815D01*
X114447463Y-81984506D01*
X114388498Y-82094820D01*
X114352188Y-82214518D01*
X114339928Y-82339000D01*
X114198000Y-82339000D01*
X114198000Y-79360665D01*
X126200000Y-79360665D01*
X126200000Y-79643335D01*
X126255147Y-79920574D01*
X126363320Y-80181727D01*
X126520363Y-80416759D01*
X126720241Y-80616637D01*
X126955273Y-80773680D01*
X127216426Y-80881853D01*
X127493665Y-80937000D01*
X127776335Y-80937000D01*
X128053574Y-80881853D01*
X128314727Y-80773680D01*
X128549759Y-80616637D01*
X128749637Y-80416759D01*
X128906680Y-80181727D01*
X129014853Y-79920574D01*
X129070000Y-79643335D01*
X129070000Y-79360665D01*
X129014853Y-79083426D01*
X128906680Y-78822273D01*
X128749637Y-78587241D01*
X128549759Y-78387363D01*
X128314727Y-78230320D01*
X128053574Y-78122147D01*
X127776335Y-78067000D01*
X127493665Y-78067000D01*
X127216426Y-78122147D01*
X126955273Y-78230320D01*
X126720241Y-78387363D01*
X126520363Y-78587241D01*
X126363320Y-78822273D01*
X126255147Y-79083426D01*
X126200000Y-79360665D01*
X114198000Y-79360665D01*
X114198000Y-76343000D01*
X115376428Y-76343000D01*
X115376428Y-78343000D01*
X115388688Y-78467482D01*
X115424998Y-78587180D01*
X115483963Y-78697494D01*
X115563315Y-78794185D01*
X115660006Y-78873537D01*
X115770320Y-78932502D01*
X115890018Y-78968812D01*
X116014500Y-78981072D01*
X117919500Y-78981072D01*
X118043982Y-78968812D01*
X118163680Y-78932502D01*
X118273994Y-78873537D01*
X118370685Y-78794185D01*
X118450037Y-78697494D01*
X118499059Y-78605781D01*
X118640077Y-78718969D01*
X118915906Y-78862571D01*
X119134020Y-78933563D01*
X119380000Y-78813594D01*
X119380000Y-77470000D01*
X119360000Y-77470000D01*
X119360000Y-77216000D01*
X119380000Y-77216000D01*
X119380000Y-75872406D01*
X119634000Y-75872406D01*
X119634000Y-77216000D01*
X119654000Y-77216000D01*
X119654000Y-77470000D01*
X119634000Y-77470000D01*
X119634000Y-78813594D01*
X119879980Y-78933563D01*
X120098094Y-78862571D01*
X120373923Y-78718969D01*
X120616437Y-78524315D01*
X120771837Y-78339101D01*
X120919037Y-78518463D01*
X121160766Y-78716845D01*
X121436552Y-78864255D01*
X121735797Y-78955030D01*
X122047000Y-78985681D01*
X122358204Y-78955030D01*
X122657449Y-78864255D01*
X122933235Y-78716845D01*
X123174963Y-78518463D01*
X123373345Y-78276734D01*
X123520755Y-78000948D01*
X123611530Y-77701703D01*
X123634500Y-77468485D01*
X123634500Y-77217514D01*
X123611530Y-76984296D01*
X123520755Y-76685051D01*
X123373345Y-76409265D01*
X123174963Y-76167537D01*
X122933234Y-75969155D01*
X122657448Y-75821745D01*
X122358203Y-75730970D01*
X122047000Y-75700319D01*
X121735796Y-75730970D01*
X121436551Y-75821745D01*
X121160765Y-75969155D01*
X120919037Y-76167537D01*
X120771838Y-76346900D01*
X120616437Y-76161685D01*
X120373923Y-75967031D01*
X120098094Y-75823429D01*
X119879980Y-75752437D01*
X119634000Y-75872406D01*
X119380000Y-75872406D01*
X119134020Y-75752437D01*
X118915906Y-75823429D01*
X118640077Y-75967031D01*
X118499059Y-76080219D01*
X118450037Y-75988506D01*
X118370685Y-75891815D01*
X118273994Y-75812463D01*
X118163680Y-75753498D01*
X118043982Y-75717188D01*
X117919500Y-75704928D01*
X116014500Y-75704928D01*
X115890018Y-75717188D01*
X115770320Y-75753498D01*
X115660006Y-75812463D01*
X115563315Y-75891815D01*
X115483963Y-75988506D01*
X115424998Y-76098820D01*
X115388688Y-76218518D01*
X115376428Y-76343000D01*
X114198000Y-76343000D01*
X114198000Y-73925000D01*
X131430928Y-73925000D01*
X131443188Y-74049482D01*
X131479498Y-74169180D01*
X131538463Y-74279494D01*
X131617815Y-74376185D01*
X131714506Y-74455537D01*
X131824820Y-74514502D01*
X131944518Y-74550812D01*
X132069000Y-74563072D01*
X132683250Y-74560000D01*
X132842000Y-74401250D01*
X132842000Y-73152000D01*
X131592750Y-73152000D01*
X131434000Y-73310750D01*
X131430928Y-73925000D01*
X114198000Y-73925000D01*
X114198000Y-71740665D01*
X126200000Y-71740665D01*
X126200000Y-72023335D01*
X126255147Y-72300574D01*
X126363320Y-72561727D01*
X126520363Y-72796759D01*
X126720241Y-72996637D01*
X126955273Y-73153680D01*
X127216426Y-73261853D01*
X127493665Y-73317000D01*
X127776335Y-73317000D01*
X128053574Y-73261853D01*
X128314727Y-73153680D01*
X128549759Y-72996637D01*
X128749637Y-72796759D01*
X128906680Y-72561727D01*
X129014853Y-72300574D01*
X129049777Y-72125000D01*
X131430928Y-72125000D01*
X131434000Y-72739250D01*
X131592750Y-72898000D01*
X132842000Y-72898000D01*
X132842000Y-71648750D01*
X133096000Y-71648750D01*
X133096000Y-72898000D01*
X133116000Y-72898000D01*
X133116000Y-73152000D01*
X133096000Y-73152000D01*
X133096000Y-74401250D01*
X133254750Y-74560000D01*
X133869000Y-74563072D01*
X133993482Y-74550812D01*
X134113180Y-74514502D01*
X134223494Y-74455537D01*
X134320185Y-74376185D01*
X134399537Y-74279494D01*
X134458502Y-74169180D01*
X134464056Y-74150873D01*
X134530495Y-74217312D01*
X134781905Y-74385299D01*
X135061257Y-74501011D01*
X135357816Y-74560000D01*
X135660184Y-74560000D01*
X135956743Y-74501011D01*
X136236095Y-74385299D01*
X136487505Y-74217312D01*
X136701312Y-74003505D01*
X136869299Y-73752095D01*
X136985011Y-73472743D01*
X137044000Y-73176184D01*
X137044000Y-72873816D01*
X136985011Y-72577257D01*
X136869299Y-72297905D01*
X136701312Y-72046495D01*
X136487505Y-71832688D01*
X136236095Y-71664701D01*
X135956743Y-71548989D01*
X135660184Y-71490000D01*
X135357816Y-71490000D01*
X135061257Y-71548989D01*
X134781905Y-71664701D01*
X134530495Y-71832688D01*
X134464056Y-71899127D01*
X134458502Y-71880820D01*
X134399537Y-71770506D01*
X134320185Y-71673815D01*
X134223494Y-71594463D01*
X134113180Y-71535498D01*
X133993482Y-71499188D01*
X133869000Y-71486928D01*
X133254750Y-71490000D01*
X133096000Y-71648750D01*
X132842000Y-71648750D01*
X132683250Y-71490000D01*
X132069000Y-71486928D01*
X131944518Y-71499188D01*
X131824820Y-71535498D01*
X131714506Y-71594463D01*
X131617815Y-71673815D01*
X131538463Y-71770506D01*
X131479498Y-71880820D01*
X131443188Y-72000518D01*
X131430928Y-72125000D01*
X129049777Y-72125000D01*
X129070000Y-72023335D01*
X129070000Y-71740665D01*
X129014853Y-71463426D01*
X128906680Y-71202273D01*
X128749637Y-70967241D01*
X128549759Y-70767363D01*
X128314727Y-70610320D01*
X128053574Y-70502147D01*
X127776335Y-70447000D01*
X127493665Y-70447000D01*
X127216426Y-70502147D01*
X126955273Y-70610320D01*
X126720241Y-70767363D01*
X126520363Y-70967241D01*
X126363320Y-71202273D01*
X126255147Y-71463426D01*
X126200000Y-71740665D01*
X114198000Y-71740665D01*
X114198000Y-65040000D01*
X115201928Y-65040000D01*
X115201928Y-67040000D01*
X115214188Y-67164482D01*
X115250498Y-67284180D01*
X115309463Y-67394494D01*
X115388815Y-67491185D01*
X115485506Y-67570537D01*
X115595820Y-67629502D01*
X115715518Y-67665812D01*
X115840000Y-67678072D01*
X117840000Y-67678072D01*
X117964482Y-67665812D01*
X118084180Y-67629502D01*
X118194494Y-67570537D01*
X118291185Y-67491185D01*
X118370537Y-67394494D01*
X118429502Y-67284180D01*
X118462496Y-67175413D01*
X120884192Y-67175413D01*
X120979956Y-67439814D01*
X121269571Y-67580704D01*
X121581108Y-67662384D01*
X121902595Y-67681718D01*
X122221675Y-67637961D01*
X122526088Y-67532795D01*
X122700044Y-67439814D01*
X122795808Y-67175413D01*
X121840000Y-66219605D01*
X120884192Y-67175413D01*
X118462496Y-67175413D01*
X118465812Y-67164482D01*
X118478072Y-67040000D01*
X118478072Y-66102595D01*
X120198282Y-66102595D01*
X120242039Y-66421675D01*
X120347205Y-66726088D01*
X120440186Y-66900044D01*
X120704587Y-66995808D01*
X121660395Y-66040000D01*
X122019605Y-66040000D01*
X122975413Y-66995808D01*
X123239814Y-66900044D01*
X123380704Y-66610429D01*
X123462384Y-66298892D01*
X123481718Y-65977405D01*
X123437961Y-65658325D01*
X123332795Y-65353912D01*
X123239814Y-65179956D01*
X122975413Y-65084192D01*
X122019605Y-66040000D01*
X121660395Y-66040000D01*
X120704587Y-65084192D01*
X120440186Y-65179956D01*
X120299296Y-65469571D01*
X120217616Y-65781108D01*
X120198282Y-66102595D01*
X118478072Y-66102595D01*
X118478072Y-65040000D01*
X118465812Y-64915518D01*
X118462497Y-64904587D01*
X120884192Y-64904587D01*
X121840000Y-65860395D01*
X122795808Y-64904587D01*
X122700044Y-64640186D01*
X122410429Y-64499296D01*
X122098892Y-64417616D01*
X121777405Y-64398282D01*
X121458325Y-64442039D01*
X121153912Y-64547205D01*
X120979956Y-64640186D01*
X120884192Y-64904587D01*
X118462497Y-64904587D01*
X118429502Y-64795820D01*
X118370537Y-64685506D01*
X118291185Y-64588815D01*
X118194494Y-64509463D01*
X118084180Y-64450498D01*
X117964482Y-64414188D01*
X117840000Y-64401928D01*
X115840000Y-64401928D01*
X115715518Y-64414188D01*
X115595820Y-64450498D01*
X115485506Y-64509463D01*
X115388815Y-64588815D01*
X115309463Y-64685506D01*
X115250498Y-64795820D01*
X115214188Y-64915518D01*
X115201928Y-65040000D01*
X114198000Y-65040000D01*
X114198000Y-63462000D01*
X126577928Y-63462000D01*
X126577928Y-65062000D01*
X126590188Y-65186482D01*
X126626498Y-65306180D01*
X126685463Y-65416494D01*
X126764815Y-65513185D01*
X126861506Y-65592537D01*
X126971820Y-65651502D01*
X127091518Y-65687812D01*
X127216000Y-65700072D01*
X128816000Y-65700072D01*
X128940482Y-65687812D01*
X129060180Y-65651502D01*
X129170494Y-65592537D01*
X129267185Y-65513185D01*
X129346537Y-65416494D01*
X129405502Y-65306180D01*
X129421117Y-65254702D01*
X129702903Y-65254702D01*
X129774486Y-65498671D01*
X130029996Y-65619571D01*
X130304184Y-65688300D01*
X130586512Y-65702217D01*
X130866130Y-65660787D01*
X131132292Y-65565603D01*
X131257514Y-65498671D01*
X131329097Y-65254702D01*
X131201285Y-65126890D01*
X138131524Y-65126890D01*
X138176175Y-65274099D01*
X138301359Y-65536920D01*
X138475412Y-65770269D01*
X138691645Y-65965178D01*
X138941748Y-66114157D01*
X139216109Y-66211481D01*
X139446000Y-66090814D01*
X139446000Y-64897000D01*
X139700000Y-64897000D01*
X139700000Y-66090814D01*
X139929891Y-66211481D01*
X140204252Y-66114157D01*
X140454355Y-65965178D01*
X140670588Y-65770269D01*
X140843000Y-65539120D01*
X141015412Y-65770269D01*
X141231645Y-65965178D01*
X141481748Y-66114157D01*
X141756109Y-66211481D01*
X141986000Y-66090814D01*
X141986000Y-64897000D01*
X139700000Y-64897000D01*
X139446000Y-64897000D01*
X138252845Y-64897000D01*
X138131524Y-65126890D01*
X131201285Y-65126890D01*
X130516000Y-64441605D01*
X129702903Y-65254702D01*
X129421117Y-65254702D01*
X129441812Y-65186482D01*
X129454072Y-65062000D01*
X129454072Y-65054785D01*
X129523298Y-65075097D01*
X130336395Y-64262000D01*
X130695605Y-64262000D01*
X131508702Y-65075097D01*
X131752671Y-65003514D01*
X131873571Y-64748004D01*
X131942300Y-64473816D01*
X131956217Y-64191488D01*
X131914787Y-63911870D01*
X131819603Y-63645708D01*
X131752671Y-63520486D01*
X131508702Y-63448903D01*
X130695605Y-64262000D01*
X130336395Y-64262000D01*
X129523298Y-63448903D01*
X129454072Y-63469215D01*
X129454072Y-63462000D01*
X129441812Y-63337518D01*
X129421118Y-63269298D01*
X129702903Y-63269298D01*
X130516000Y-64082395D01*
X131329097Y-63269298D01*
X131257514Y-63025329D01*
X131002004Y-62904429D01*
X130727816Y-62835700D01*
X130445488Y-62821783D01*
X130165870Y-62863213D01*
X129899708Y-62958397D01*
X129774486Y-63025329D01*
X129702903Y-63269298D01*
X129421118Y-63269298D01*
X129405502Y-63217820D01*
X129346537Y-63107506D01*
X129267185Y-63010815D01*
X129170494Y-62931463D01*
X129060180Y-62872498D01*
X128940482Y-62836188D01*
X128816000Y-62823928D01*
X127216000Y-62823928D01*
X127091518Y-62836188D01*
X126971820Y-62872498D01*
X126861506Y-62931463D01*
X126764815Y-63010815D01*
X126685463Y-63107506D01*
X126626498Y-63217820D01*
X126590188Y-63337518D01*
X126577928Y-63462000D01*
X114198000Y-63462000D01*
X114198000Y-60858000D01*
X138358104Y-60858000D01*
X138271815Y-60928815D01*
%TA.AperFunction,Conductor*%
D29*
G36*
X138271815Y-60928815D02*
G01*
X138192463Y-61025506D01*
X138133498Y-61135820D01*
X138097188Y-61255518D01*
X138084928Y-61380000D01*
X138084928Y-63080000D01*
X138097188Y-63204482D01*
X138133498Y-63324180D01*
X138192463Y-63434494D01*
X138271815Y-63531185D01*
X138368506Y-63610537D01*
X138478820Y-63669502D01*
X138559466Y-63693966D01*
X138475412Y-63769731D01*
X138301359Y-64003080D01*
X138176175Y-64265901D01*
X138131524Y-64413110D01*
X138252845Y-64643000D01*
X139446000Y-64643000D01*
X139446000Y-64623000D01*
X139700000Y-64623000D01*
X139700000Y-64643000D01*
X141986000Y-64643000D01*
X141986000Y-64623000D01*
X142240000Y-64623000D01*
X142240000Y-64643000D01*
X142260000Y-64643000D01*
X142260000Y-64897000D01*
X142240000Y-64897000D01*
X142240000Y-66090814D01*
X142469891Y-66211481D01*
X142744252Y-66114157D01*
X142994355Y-65965178D01*
X143210588Y-65770269D01*
X143358001Y-65572636D01*
X143358001Y-66396000D01*
X137827419Y-66396000D01*
X137795000Y-66392807D01*
X137762581Y-66396000D01*
X137665617Y-66405550D01*
X137541207Y-66443290D01*
X137426550Y-66504575D01*
X137326052Y-66587052D01*
X137243575Y-66687550D01*
X137182290Y-66802207D01*
X137144550Y-66926617D01*
X137131807Y-67056000D01*
X137135001Y-67088429D01*
X137135000Y-105250581D01*
X137131807Y-105283000D01*
X137144550Y-105412383D01*
X137182290Y-105536793D01*
X137243575Y-105651450D01*
X137305519Y-105726928D01*
X137326052Y-105751948D01*
X137426550Y-105834425D01*
X137541207Y-105895710D01*
X137665617Y-105933450D01*
X137795000Y-105946193D01*
X137827419Y-105943000D01*
X138247864Y-105943000D01*
X138192463Y-106010506D01*
X138133498Y-106120820D01*
X138097188Y-106240518D01*
X138084928Y-106365000D01*
X138084928Y-108065000D01*
X138097188Y-108189482D01*
X138133498Y-108309180D01*
X138192463Y-108419494D01*
X138271815Y-108516185D01*
X138368506Y-108595537D01*
X138478820Y-108654502D01*
X138559466Y-108678966D01*
X138475412Y-108754731D01*
X138301359Y-108988080D01*
X138176175Y-109250901D01*
X138131524Y-109398110D01*
X138252845Y-109628000D01*
X139446000Y-109628000D01*
X139446000Y-109608000D01*
X139700000Y-109608000D01*
X139700000Y-109628000D01*
X141986000Y-109628000D01*
X141986000Y-109608000D01*
X142240000Y-109608000D01*
X142240000Y-109628000D01*
X142260000Y-109628000D01*
X142260000Y-109882000D01*
X142240000Y-109882000D01*
X142240000Y-111075814D01*
X142469891Y-111196481D01*
X142744252Y-111099157D01*
X142994355Y-110950178D01*
X143210588Y-110755269D01*
X143358000Y-110557637D01*
X143358000Y-111608000D01*
X126469850Y-111608000D01*
X126603775Y-111407566D01*
X126749639Y-111055419D01*
X126824000Y-110681581D01*
X126824000Y-110300419D01*
X126749639Y-109926581D01*
X126603775Y-109574434D01*
X126392013Y-109257509D01*
X126122491Y-108987987D01*
X125805566Y-108776225D01*
X125615906Y-108697665D01*
X131915000Y-108697665D01*
X131915000Y-108980335D01*
X131970147Y-109257574D01*
X132078320Y-109518727D01*
X132235363Y-109753759D01*
X132435241Y-109953637D01*
X132670273Y-110110680D01*
X132931426Y-110218853D01*
X133208665Y-110274000D01*
X133491335Y-110274000D01*
X133768574Y-110218853D01*
X134026805Y-110111890D01*
X138131524Y-110111890D01*
X138176175Y-110259099D01*
X138301359Y-110521920D01*
X138475412Y-110755269D01*
X138691645Y-110950178D01*
X138941748Y-111099157D01*
X139216109Y-111196481D01*
X139446000Y-111075814D01*
X139446000Y-109882000D01*
X139700000Y-109882000D01*
X139700000Y-111075814D01*
X139929891Y-111196481D01*
X140204252Y-111099157D01*
X140454355Y-110950178D01*
X140670588Y-110755269D01*
X140843000Y-110524120D01*
X141015412Y-110755269D01*
X141231645Y-110950178D01*
X141481748Y-111099157D01*
X141756109Y-111196481D01*
X141986000Y-111075814D01*
X141986000Y-109882000D01*
X139700000Y-109882000D01*
X139446000Y-109882000D01*
X138252845Y-109882000D01*
X138131524Y-110111890D01*
X134026805Y-110111890D01*
X134029727Y-110110680D01*
X134264759Y-109953637D01*
X134464637Y-109753759D01*
X134621680Y-109518727D01*
X134729853Y-109257574D01*
X134785000Y-108980335D01*
X134785000Y-108697665D01*
X134729853Y-108420426D01*
X134621680Y-108159273D01*
X134464637Y-107924241D01*
X134264759Y-107724363D01*
X134029727Y-107567320D01*
X133768574Y-107459147D01*
X133491335Y-107404000D01*
X133208665Y-107404000D01*
X132931426Y-107459147D01*
X132670273Y-107567320D01*
X132435241Y-107724363D01*
X132235363Y-107924241D01*
X132078320Y-108159273D01*
X131970147Y-108420426D01*
X131915000Y-108697665D01*
X125615906Y-108697665D01*
X125453419Y-108630361D01*
X125079581Y-108556000D01*
X124698419Y-108556000D01*
X124324581Y-108630361D01*
X123972434Y-108776225D01*
X123655509Y-108987987D01*
X123385987Y-109257509D01*
X123174225Y-109574434D01*
X123028361Y-109926581D01*
X122954000Y-110300419D01*
X122954000Y-110681581D01*
X123028361Y-111055419D01*
X123174225Y-111407566D01*
X123308150Y-111608000D01*
X114198000Y-111608000D01*
X114198000Y-96436000D01*
X114339928Y-96436000D01*
X114339928Y-98636000D01*
X114352188Y-98760482D01*
X114388498Y-98880180D01*
X114447463Y-98990494D01*
X114526815Y-99087185D01*
X114623506Y-99166537D01*
X114733820Y-99225502D01*
X114853518Y-99261812D01*
X114978000Y-99274072D01*
X117178000Y-99274072D01*
X117302482Y-99261812D01*
X117422180Y-99225502D01*
X117532494Y-99166537D01*
X117629185Y-99087185D01*
X117708537Y-98990494D01*
X117767502Y-98880180D01*
X117803812Y-98760482D01*
X117816072Y-98636000D01*
X117816072Y-96436000D01*
X117803812Y-96311518D01*
X117767502Y-96191820D01*
X117708537Y-96081506D01*
X117629185Y-95984815D01*
X117532494Y-95905463D01*
X117422180Y-95846498D01*
X117302482Y-95810188D01*
X117178000Y-95797928D01*
X114978000Y-95797928D01*
X114853518Y-95810188D01*
X114733820Y-95846498D01*
X114623506Y-95905463D01*
X114526815Y-95984815D01*
X114447463Y-96081506D01*
X114388498Y-96191820D01*
X114352188Y-96311518D01*
X114339928Y-96436000D01*
X114198000Y-96436000D01*
X114198000Y-92666117D01*
X114343000Y-92666117D01*
X114343000Y-93007883D01*
X114409675Y-93343081D01*
X114540463Y-93658831D01*
X114730337Y-93942998D01*
X114972002Y-94184663D01*
X115256169Y-94374537D01*
X115571919Y-94505325D01*
X115907117Y-94572000D01*
X116248883Y-94572000D01*
X116584081Y-94505325D01*
X116899831Y-94374537D01*
X117183998Y-94184663D01*
X117425663Y-93942998D01*
X117615537Y-93658831D01*
X117746325Y-93343081D01*
X117813000Y-93007883D01*
X117813000Y-92666117D01*
X117746325Y-92330919D01*
X117615537Y-92015169D01*
X117425663Y-91731002D01*
X117183998Y-91489337D01*
X116899831Y-91299463D01*
X116584081Y-91168675D01*
X116248883Y-91102000D01*
X115907117Y-91102000D01*
X115571919Y-91168675D01*
X115256169Y-91299463D01*
X114972002Y-91489337D01*
X114730337Y-91731002D01*
X114540463Y-92015169D01*
X114409675Y-92330919D01*
X114343000Y-92666117D01*
X114198000Y-92666117D01*
X114198000Y-87038000D01*
X114339928Y-87038000D01*
X114339928Y-89238000D01*
X114352188Y-89362482D01*
X114388498Y-89482180D01*
X114447463Y-89592494D01*
X114526815Y-89689185D01*
X114623506Y-89768537D01*
X114733820Y-89827502D01*
X114853518Y-89863812D01*
X114978000Y-89876072D01*
X117178000Y-89876072D01*
X117302482Y-89863812D01*
X117420005Y-89828162D01*
X124584931Y-96993089D01*
X124569675Y-97029919D01*
X124503000Y-97365117D01*
X124503000Y-97706883D01*
X124569675Y-98042081D01*
X124584931Y-98078912D01*
X121361185Y-101302658D01*
X121331237Y-101327236D01*
X121306659Y-101357184D01*
X121306655Y-101357188D01*
X121273690Y-101397356D01*
X121233139Y-101446767D01*
X121194177Y-101519660D01*
X121160246Y-101583141D01*
X121115359Y-101731114D01*
X121100203Y-101885000D01*
X121104001Y-101923563D01*
X121104000Y-104021728D01*
X120972434Y-104076225D01*
X120655509Y-104287987D01*
X120385987Y-104557509D01*
X120174225Y-104874434D01*
X120028361Y-105226581D01*
X119954000Y-105600419D01*
X119954000Y-105981581D01*
X120028361Y-106355419D01*
X120174225Y-106707566D01*
X120385987Y-107024491D01*
X120655509Y-107294013D01*
X120972434Y-107505775D01*
X121324581Y-107651639D01*
X121698419Y-107726000D01*
X122079581Y-107726000D01*
X122453419Y-107651639D01*
X122805566Y-107505775D01*
X123122491Y-107294013D01*
X123392013Y-107024491D01*
X123603775Y-106707566D01*
X123749639Y-106355419D01*
X123824000Y-105981581D01*
X123824000Y-105600419D01*
X123749639Y-105226581D01*
X123603775Y-104874434D01*
X123392013Y-104557509D01*
X123325504Y-104491000D01*
X125950928Y-104491000D01*
X125950928Y-107091000D01*
X125963188Y-107215482D01*
X125999498Y-107335180D01*
X126058463Y-107445494D01*
X126137815Y-107542185D01*
X126234506Y-107621537D01*
X126344820Y-107680502D01*
X126464518Y-107716812D01*
X126589000Y-107729072D01*
X129189000Y-107729072D01*
X129313482Y-107716812D01*
X129433180Y-107680502D01*
X129543494Y-107621537D01*
X129640185Y-107542185D01*
X129719537Y-107445494D01*
X129778502Y-107335180D01*
X129814812Y-107215482D01*
X129827072Y-107091000D01*
X129827072Y-104491000D01*
X129814812Y-104366518D01*
X129778502Y-104246820D01*
X129719537Y-104136506D01*
X129640185Y-104039815D01*
X129543494Y-103960463D01*
X129433180Y-103901498D01*
X129313482Y-103865188D01*
X129189000Y-103852928D01*
X126589000Y-103852928D01*
X126464518Y-103865188D01*
X126344820Y-103901498D01*
X126234506Y-103960463D01*
X126137815Y-104039815D01*
X126058463Y-104136506D01*
X125999498Y-104246820D01*
X125963188Y-104366518D01*
X125950928Y-104491000D01*
X123325504Y-104491000D01*
X123122491Y-104287987D01*
X122805566Y-104076225D01*
X122674000Y-104021729D01*
X122674000Y-102210157D01*
X123806492Y-101077665D01*
X131915000Y-101077665D01*
X131915000Y-101360335D01*
X131970147Y-101637574D01*
X132078320Y-101898727D01*
X132235363Y-102133759D01*
X132435241Y-102333637D01*
X132670273Y-102490680D01*
X132931426Y-102598853D01*
X133208665Y-102654000D01*
X133491335Y-102654000D01*
X133768574Y-102598853D01*
X134029727Y-102490680D01*
X134264759Y-102333637D01*
X134464637Y-102133759D01*
X134621680Y-101898727D01*
X134729853Y-101637574D01*
X134785000Y-101360335D01*
X134785000Y-101077665D01*
X134729853Y-100800426D01*
X134621680Y-100539273D01*
X134464637Y-100304241D01*
X134264759Y-100104363D01*
X134029727Y-99947320D01*
X133768574Y-99839147D01*
X133491335Y-99784000D01*
X133208665Y-99784000D01*
X132931426Y-99839147D01*
X132670273Y-99947320D01*
X132435241Y-100104363D01*
X132235363Y-100304241D01*
X132078320Y-100539273D01*
X131970147Y-100800426D01*
X131915000Y-101077665D01*
X123806492Y-101077665D01*
X125695088Y-99189069D01*
X125731919Y-99204325D01*
X126067117Y-99271000D01*
X126408883Y-99271000D01*
X126744081Y-99204325D01*
X127059831Y-99073537D01*
X127343998Y-98883663D01*
X127585663Y-98641998D01*
X127775537Y-98357831D01*
X127906325Y-98042081D01*
X127973000Y-97706883D01*
X127973000Y-97365117D01*
X127906325Y-97029919D01*
X127775537Y-96714169D01*
X127585663Y-96430002D01*
X127343998Y-96188337D01*
X127059831Y-95998463D01*
X126744081Y-95867675D01*
X126408883Y-95801000D01*
X126067117Y-95801000D01*
X125731919Y-95867675D01*
X125695089Y-95882931D01*
X125073158Y-95261000D01*
X131430928Y-95261000D01*
X131443188Y-95385482D01*
X131479498Y-95505180D01*
X131538463Y-95615494D01*
X131617815Y-95712185D01*
X131714506Y-95791537D01*
X131824820Y-95850502D01*
X131944518Y-95886812D01*
X132069000Y-95899072D01*
X132683250Y-95896000D01*
X132842000Y-95737250D01*
X132842000Y-94488000D01*
X131592750Y-94488000D01*
X131434000Y-94646750D01*
X131430928Y-95261000D01*
X125073158Y-95261000D01*
X121549158Y-91737000D01*
X124499928Y-91737000D01*
X124499928Y-93937000D01*
X124512188Y-94061482D01*
X124548498Y-94181180D01*
X124607463Y-94291494D01*
X124686815Y-94388185D01*
X124783506Y-94467537D01*
X124893820Y-94526502D01*
X125013518Y-94562812D01*
X125138000Y-94575072D01*
X127338000Y-94575072D01*
X127462482Y-94562812D01*
X127582180Y-94526502D01*
X127692494Y-94467537D01*
X127789185Y-94388185D01*
X127868537Y-94291494D01*
X127927502Y-94181180D01*
X127963812Y-94061482D01*
X127976072Y-93937000D01*
X127976072Y-93461000D01*
X131430928Y-93461000D01*
X131434000Y-94075250D01*
X131592750Y-94234000D01*
X132842000Y-94234000D01*
X132842000Y-92984750D01*
X133096000Y-92984750D01*
X133096000Y-94234000D01*
X133116000Y-94234000D01*
X133116000Y-94488000D01*
X133096000Y-94488000D01*
X133096000Y-95737250D01*
X133254750Y-95896000D01*
X133869000Y-95899072D01*
X133993482Y-95886812D01*
X134113180Y-95850502D01*
X134223494Y-95791537D01*
X134320185Y-95712185D01*
X134399537Y-95615494D01*
X134458502Y-95505180D01*
X134464056Y-95486873D01*
X134530495Y-95553312D01*
X134781905Y-95721299D01*
X135061257Y-95837011D01*
X135357816Y-95896000D01*
X135660184Y-95896000D01*
X135956743Y-95837011D01*
X136236095Y-95721299D01*
X136487505Y-95553312D01*
X136701312Y-95339505D01*
X136869299Y-95088095D01*
X136985011Y-94808743D01*
X137044000Y-94512184D01*
X137044000Y-94209816D01*
X136985011Y-93913257D01*
X136869299Y-93633905D01*
X136701312Y-93382495D01*
X136487505Y-93168688D01*
X136236095Y-93000701D01*
X135956743Y-92884989D01*
X135660184Y-92826000D01*
X135357816Y-92826000D01*
X135061257Y-92884989D01*
X134781905Y-93000701D01*
X134530495Y-93168688D01*
X134464056Y-93235127D01*
X134458502Y-93216820D01*
X134399537Y-93106506D01*
X134320185Y-93009815D01*
X134223494Y-92930463D01*
X134113180Y-92871498D01*
X133993482Y-92835188D01*
X133869000Y-92822928D01*
X133254750Y-92826000D01*
X133096000Y-92984750D01*
X132842000Y-92984750D01*
X132683250Y-92826000D01*
X132069000Y-92822928D01*
X131944518Y-92835188D01*
X131824820Y-92871498D01*
X131714506Y-92930463D01*
X131617815Y-93009815D01*
X131538463Y-93106506D01*
X131479498Y-93216820D01*
X131443188Y-93336518D01*
X131430928Y-93461000D01*
X127976072Y-93461000D01*
X127976072Y-91737000D01*
X127963812Y-91612518D01*
X127927502Y-91492820D01*
X127868537Y-91382506D01*
X127789185Y-91285815D01*
X127692494Y-91206463D01*
X127582180Y-91147498D01*
X127462482Y-91111188D01*
X127338000Y-91098928D01*
X125138000Y-91098928D01*
X125013518Y-91111188D01*
X124893820Y-91147498D01*
X124783506Y-91206463D01*
X124686815Y-91285815D01*
X124607463Y-91382506D01*
X124548498Y-91492820D01*
X124512188Y-91612518D01*
X124499928Y-91737000D01*
X121549158Y-91737000D01*
X118346280Y-88534122D01*
X124548825Y-88534122D01*
X124613425Y-88747094D01*
X124763469Y-89052329D01*
X124970178Y-89322427D01*
X125225609Y-89547008D01*
X125519946Y-89717442D01*
X125841877Y-89827179D01*
X126111000Y-89709600D01*
X126111000Y-88265000D01*
X126365000Y-88265000D01*
X126365000Y-89709600D01*
X126634123Y-89827179D01*
X126956054Y-89717442D01*
X127250391Y-89547008D01*
X127505822Y-89322427D01*
X127712531Y-89052329D01*
X127862575Y-88747094D01*
X127927175Y-88534122D01*
X127809125Y-88265000D01*
X126365000Y-88265000D01*
X126111000Y-88265000D01*
X124666875Y-88265000D01*
X124548825Y-88534122D01*
X118346280Y-88534122D01*
X117816072Y-88003915D01*
X117816072Y-87741878D01*
X124548825Y-87741878D01*
X124666875Y-88011000D01*
X126111000Y-88011000D01*
X126111000Y-86566400D01*
X126365000Y-86566400D01*
X126365000Y-88011000D01*
X127809125Y-88011000D01*
X127927175Y-87741878D01*
X127862575Y-87528906D01*
X127712531Y-87223671D01*
X127505822Y-86953573D01*
X127250391Y-86728992D01*
X126956054Y-86558558D01*
X126634123Y-86448821D01*
X126365000Y-86566400D01*
X126111000Y-86566400D01*
X125841877Y-86448821D01*
X125519946Y-86558558D01*
X125225609Y-86728992D01*
X124970178Y-86953573D01*
X124763469Y-87223671D01*
X124613425Y-87528906D01*
X124548825Y-87741878D01*
X117816072Y-87741878D01*
X117816072Y-87038000D01*
X117803812Y-86913518D01*
X117767502Y-86793820D01*
X117708537Y-86683506D01*
X117629185Y-86586815D01*
X117532494Y-86507463D01*
X117422180Y-86448498D01*
X117302482Y-86412188D01*
X117178000Y-86399928D01*
X114978000Y-86399928D01*
X114853518Y-86412188D01*
X114733820Y-86448498D01*
X114623506Y-86507463D01*
X114526815Y-86586815D01*
X114447463Y-86683506D01*
X114388498Y-86793820D01*
X114352188Y-86913518D01*
X114339928Y-87038000D01*
X114198000Y-87038000D01*
X114198000Y-82339000D01*
X114339928Y-82339000D01*
X114339928Y-84539000D01*
X114352188Y-84663482D01*
X114388498Y-84783180D01*
X114447463Y-84893494D01*
X114526815Y-84990185D01*
X114623506Y-85069537D01*
X114733820Y-85128502D01*
X114853518Y-85164812D01*
X114978000Y-85177072D01*
X117178000Y-85177072D01*
X117302482Y-85164812D01*
X117422180Y-85128502D01*
X117532494Y-85069537D01*
X117629185Y-84990185D01*
X117708537Y-84893494D01*
X117767502Y-84783180D01*
X117803812Y-84663482D01*
X117816072Y-84539000D01*
X117816072Y-83835122D01*
X124548825Y-83835122D01*
X124613425Y-84048094D01*
X124763469Y-84353329D01*
X124970178Y-84623427D01*
X125225609Y-84848008D01*
X125519946Y-85018442D01*
X125841877Y-85128179D01*
X126111000Y-85010600D01*
X126111000Y-83566000D01*
X126365000Y-83566000D01*
X126365000Y-85010600D01*
X126634123Y-85128179D01*
X126649316Y-85123000D01*
X132269928Y-85123000D01*
X132269928Y-87023000D01*
X132282188Y-87147482D01*
X132318498Y-87267180D01*
X132377463Y-87377494D01*
X132456815Y-87474185D01*
X132553506Y-87553537D01*
X132663820Y-87612502D01*
X132783518Y-87648812D01*
X132908000Y-87661072D01*
X134808000Y-87661072D01*
X134932482Y-87648812D01*
X135052180Y-87612502D01*
X135162494Y-87553537D01*
X135259185Y-87474185D01*
X135338537Y-87377494D01*
X135397502Y-87267180D01*
X135433812Y-87147482D01*
X135446072Y-87023000D01*
X135446072Y-85123000D01*
X135433812Y-84998518D01*
X135397502Y-84878820D01*
X135338537Y-84768506D01*
X135259185Y-84671815D01*
X135162494Y-84592463D01*
X135103979Y-84561186D01*
X135262609Y-84323779D01*
X135382089Y-84035327D01*
X135443000Y-83729109D01*
X135443000Y-83416891D01*
X135382089Y-83110673D01*
X135262609Y-82822221D01*
X135089150Y-82562621D01*
X134868379Y-82341850D01*
X134840168Y-82323000D01*
X134868379Y-82304150D01*
X135089150Y-82083379D01*
X135262609Y-81823779D01*
X135382089Y-81535327D01*
X135443000Y-81229109D01*
X135443000Y-80916891D01*
X135382089Y-80610673D01*
X135262609Y-80322221D01*
X135089150Y-80062621D01*
X134868379Y-79841850D01*
X134608779Y-79668391D01*
X134320327Y-79548911D01*
X134014109Y-79488000D01*
X133701891Y-79488000D01*
X133395673Y-79548911D01*
X133107221Y-79668391D01*
X132847621Y-79841850D01*
X132626850Y-80062621D01*
X132453391Y-80322221D01*
X132333911Y-80610673D01*
X132273000Y-80916891D01*
X132273000Y-81229109D01*
X132333911Y-81535327D01*
X132453391Y-81823779D01*
X132626850Y-82083379D01*
X132847621Y-82304150D01*
X132875832Y-82323000D01*
X132847621Y-82341850D01*
X132626850Y-82562621D01*
X132453391Y-82822221D01*
X132333911Y-83110673D01*
X132273000Y-83416891D01*
X132273000Y-83729109D01*
X132333911Y-84035327D01*
X132453391Y-84323779D01*
X132612021Y-84561186D01*
X132553506Y-84592463D01*
X132456815Y-84671815D01*
X132377463Y-84768506D01*
X132318498Y-84878820D01*
X132282188Y-84998518D01*
X132269928Y-85123000D01*
X126649316Y-85123000D01*
X126956054Y-85018442D01*
X127250391Y-84848008D01*
X127505822Y-84623427D01*
X127712531Y-84353329D01*
X127862575Y-84048094D01*
X127927175Y-83835122D01*
X127809125Y-83566000D01*
X126365000Y-83566000D01*
X126111000Y-83566000D01*
X124666875Y-83566000D01*
X124548825Y-83835122D01*
X117816072Y-83835122D01*
X117816072Y-83042878D01*
X124548825Y-83042878D01*
X124666875Y-83312000D01*
X126111000Y-83312000D01*
X126111000Y-81867400D01*
X126365000Y-81867400D01*
X126365000Y-83312000D01*
X127809125Y-83312000D01*
X127927175Y-83042878D01*
X127862575Y-82829906D01*
X127712531Y-82524671D01*
X127505822Y-82254573D01*
X127250391Y-82029992D01*
X126956054Y-81859558D01*
X126634123Y-81749821D01*
X126365000Y-81867400D01*
X126111000Y-81867400D01*
X125841877Y-81749821D01*
X125519946Y-81859558D01*
X125225609Y-82029992D01*
X124970178Y-82254573D01*
X124763469Y-82524671D01*
X124613425Y-82829906D01*
X124548825Y-83042878D01*
X117816072Y-83042878D01*
X117816072Y-82339000D01*
X117803812Y-82214518D01*
X117767502Y-82094820D01*
X117708537Y-81984506D01*
X117629185Y-81887815D01*
X117532494Y-81808463D01*
X117422180Y-81749498D01*
X117302482Y-81713188D01*
X117178000Y-81700928D01*
X114978000Y-81700928D01*
X114853518Y-81713188D01*
X114733820Y-81749498D01*
X114623506Y-81808463D01*
X114526815Y-81887815D01*
X114447463Y-81984506D01*
X114388498Y-82094820D01*
X114352188Y-82214518D01*
X114339928Y-82339000D01*
X114198000Y-82339000D01*
X114198000Y-79360665D01*
X126200000Y-79360665D01*
X126200000Y-79643335D01*
X126255147Y-79920574D01*
X126363320Y-80181727D01*
X126520363Y-80416759D01*
X126720241Y-80616637D01*
X126955273Y-80773680D01*
X127216426Y-80881853D01*
X127493665Y-80937000D01*
X127776335Y-80937000D01*
X128053574Y-80881853D01*
X128314727Y-80773680D01*
X128549759Y-80616637D01*
X128749637Y-80416759D01*
X128906680Y-80181727D01*
X129014853Y-79920574D01*
X129070000Y-79643335D01*
X129070000Y-79360665D01*
X129014853Y-79083426D01*
X128906680Y-78822273D01*
X128749637Y-78587241D01*
X128549759Y-78387363D01*
X128314727Y-78230320D01*
X128053574Y-78122147D01*
X127776335Y-78067000D01*
X127493665Y-78067000D01*
X127216426Y-78122147D01*
X126955273Y-78230320D01*
X126720241Y-78387363D01*
X126520363Y-78587241D01*
X126363320Y-78822273D01*
X126255147Y-79083426D01*
X126200000Y-79360665D01*
X114198000Y-79360665D01*
X114198000Y-76343000D01*
X115376428Y-76343000D01*
X115376428Y-78343000D01*
X115388688Y-78467482D01*
X115424998Y-78587180D01*
X115483963Y-78697494D01*
X115563315Y-78794185D01*
X115660006Y-78873537D01*
X115770320Y-78932502D01*
X115890018Y-78968812D01*
X116014500Y-78981072D01*
X117919500Y-78981072D01*
X118043982Y-78968812D01*
X118163680Y-78932502D01*
X118273994Y-78873537D01*
X118370685Y-78794185D01*
X118450037Y-78697494D01*
X118499059Y-78605781D01*
X118640077Y-78718969D01*
X118915906Y-78862571D01*
X119134020Y-78933563D01*
X119380000Y-78813594D01*
X119380000Y-77470000D01*
X119360000Y-77470000D01*
X119360000Y-77216000D01*
X119380000Y-77216000D01*
X119380000Y-75872406D01*
X119634000Y-75872406D01*
X119634000Y-77216000D01*
X119654000Y-77216000D01*
X119654000Y-77470000D01*
X119634000Y-77470000D01*
X119634000Y-78813594D01*
X119879980Y-78933563D01*
X120098094Y-78862571D01*
X120373923Y-78718969D01*
X120616437Y-78524315D01*
X120771837Y-78339101D01*
X120919037Y-78518463D01*
X121160766Y-78716845D01*
X121436552Y-78864255D01*
X121735797Y-78955030D01*
X122047000Y-78985681D01*
X122358204Y-78955030D01*
X122657449Y-78864255D01*
X122933235Y-78716845D01*
X123174963Y-78518463D01*
X123373345Y-78276734D01*
X123520755Y-78000948D01*
X123611530Y-77701703D01*
X123634500Y-77468485D01*
X123634500Y-77217514D01*
X123611530Y-76984296D01*
X123520755Y-76685051D01*
X123373345Y-76409265D01*
X123174963Y-76167537D01*
X122933234Y-75969155D01*
X122657448Y-75821745D01*
X122358203Y-75730970D01*
X122047000Y-75700319D01*
X121735796Y-75730970D01*
X121436551Y-75821745D01*
X121160765Y-75969155D01*
X120919037Y-76167537D01*
X120771838Y-76346900D01*
X120616437Y-76161685D01*
X120373923Y-75967031D01*
X120098094Y-75823429D01*
X119879980Y-75752437D01*
X119634000Y-75872406D01*
X119380000Y-75872406D01*
X119134020Y-75752437D01*
X118915906Y-75823429D01*
X118640077Y-75967031D01*
X118499059Y-76080219D01*
X118450037Y-75988506D01*
X118370685Y-75891815D01*
X118273994Y-75812463D01*
X118163680Y-75753498D01*
X118043982Y-75717188D01*
X117919500Y-75704928D01*
X116014500Y-75704928D01*
X115890018Y-75717188D01*
X115770320Y-75753498D01*
X115660006Y-75812463D01*
X115563315Y-75891815D01*
X115483963Y-75988506D01*
X115424998Y-76098820D01*
X115388688Y-76218518D01*
X115376428Y-76343000D01*
X114198000Y-76343000D01*
X114198000Y-73925000D01*
X131430928Y-73925000D01*
X131443188Y-74049482D01*
X131479498Y-74169180D01*
X131538463Y-74279494D01*
X131617815Y-74376185D01*
X131714506Y-74455537D01*
X131824820Y-74514502D01*
X131944518Y-74550812D01*
X132069000Y-74563072D01*
X132683250Y-74560000D01*
X132842000Y-74401250D01*
X132842000Y-73152000D01*
X131592750Y-73152000D01*
X131434000Y-73310750D01*
X131430928Y-73925000D01*
X114198000Y-73925000D01*
X114198000Y-71740665D01*
X126200000Y-71740665D01*
X126200000Y-72023335D01*
X126255147Y-72300574D01*
X126363320Y-72561727D01*
X126520363Y-72796759D01*
X126720241Y-72996637D01*
X126955273Y-73153680D01*
X127216426Y-73261853D01*
X127493665Y-73317000D01*
X127776335Y-73317000D01*
X128053574Y-73261853D01*
X128314727Y-73153680D01*
X128549759Y-72996637D01*
X128749637Y-72796759D01*
X128906680Y-72561727D01*
X129014853Y-72300574D01*
X129049777Y-72125000D01*
X131430928Y-72125000D01*
X131434000Y-72739250D01*
X131592750Y-72898000D01*
X132842000Y-72898000D01*
X132842000Y-71648750D01*
X133096000Y-71648750D01*
X133096000Y-72898000D01*
X133116000Y-72898000D01*
X133116000Y-73152000D01*
X133096000Y-73152000D01*
X133096000Y-74401250D01*
X133254750Y-74560000D01*
X133869000Y-74563072D01*
X133993482Y-74550812D01*
X134113180Y-74514502D01*
X134223494Y-74455537D01*
X134320185Y-74376185D01*
X134399537Y-74279494D01*
X134458502Y-74169180D01*
X134464056Y-74150873D01*
X134530495Y-74217312D01*
X134781905Y-74385299D01*
X135061257Y-74501011D01*
X135357816Y-74560000D01*
X135660184Y-74560000D01*
X135956743Y-74501011D01*
X136236095Y-74385299D01*
X136487505Y-74217312D01*
X136701312Y-74003505D01*
X136869299Y-73752095D01*
X136985011Y-73472743D01*
X137044000Y-73176184D01*
X137044000Y-72873816D01*
X136985011Y-72577257D01*
X136869299Y-72297905D01*
X136701312Y-72046495D01*
X136487505Y-71832688D01*
X136236095Y-71664701D01*
X135956743Y-71548989D01*
X135660184Y-71490000D01*
X135357816Y-71490000D01*
X135061257Y-71548989D01*
X134781905Y-71664701D01*
X134530495Y-71832688D01*
X134464056Y-71899127D01*
X134458502Y-71880820D01*
X134399537Y-71770506D01*
X134320185Y-71673815D01*
X134223494Y-71594463D01*
X134113180Y-71535498D01*
X133993482Y-71499188D01*
X133869000Y-71486928D01*
X133254750Y-71490000D01*
X133096000Y-71648750D01*
X132842000Y-71648750D01*
X132683250Y-71490000D01*
X132069000Y-71486928D01*
X131944518Y-71499188D01*
X131824820Y-71535498D01*
X131714506Y-71594463D01*
X131617815Y-71673815D01*
X131538463Y-71770506D01*
X131479498Y-71880820D01*
X131443188Y-72000518D01*
X131430928Y-72125000D01*
X129049777Y-72125000D01*
X129070000Y-72023335D01*
X129070000Y-71740665D01*
X129014853Y-71463426D01*
X128906680Y-71202273D01*
X128749637Y-70967241D01*
X128549759Y-70767363D01*
X128314727Y-70610320D01*
X128053574Y-70502147D01*
X127776335Y-70447000D01*
X127493665Y-70447000D01*
X127216426Y-70502147D01*
X126955273Y-70610320D01*
X126720241Y-70767363D01*
X126520363Y-70967241D01*
X126363320Y-71202273D01*
X126255147Y-71463426D01*
X126200000Y-71740665D01*
X114198000Y-71740665D01*
X114198000Y-65040000D01*
X115201928Y-65040000D01*
X115201928Y-67040000D01*
X115214188Y-67164482D01*
X115250498Y-67284180D01*
X115309463Y-67394494D01*
X115388815Y-67491185D01*
X115485506Y-67570537D01*
X115595820Y-67629502D01*
X115715518Y-67665812D01*
X115840000Y-67678072D01*
X117840000Y-67678072D01*
X117964482Y-67665812D01*
X118084180Y-67629502D01*
X118194494Y-67570537D01*
X118291185Y-67491185D01*
X118370537Y-67394494D01*
X118429502Y-67284180D01*
X118462496Y-67175413D01*
X120884192Y-67175413D01*
X120979956Y-67439814D01*
X121269571Y-67580704D01*
X121581108Y-67662384D01*
X121902595Y-67681718D01*
X122221675Y-67637961D01*
X122526088Y-67532795D01*
X122700044Y-67439814D01*
X122795808Y-67175413D01*
X121840000Y-66219605D01*
X120884192Y-67175413D01*
X118462496Y-67175413D01*
X118465812Y-67164482D01*
X118478072Y-67040000D01*
X118478072Y-66102595D01*
X120198282Y-66102595D01*
X120242039Y-66421675D01*
X120347205Y-66726088D01*
X120440186Y-66900044D01*
X120704587Y-66995808D01*
X121660395Y-66040000D01*
X122019605Y-66040000D01*
X122975413Y-66995808D01*
X123239814Y-66900044D01*
X123380704Y-66610429D01*
X123462384Y-66298892D01*
X123481718Y-65977405D01*
X123437961Y-65658325D01*
X123332795Y-65353912D01*
X123239814Y-65179956D01*
X122975413Y-65084192D01*
X122019605Y-66040000D01*
X121660395Y-66040000D01*
X120704587Y-65084192D01*
X120440186Y-65179956D01*
X120299296Y-65469571D01*
X120217616Y-65781108D01*
X120198282Y-66102595D01*
X118478072Y-66102595D01*
X118478072Y-65040000D01*
X118465812Y-64915518D01*
X118462497Y-64904587D01*
X120884192Y-64904587D01*
X121840000Y-65860395D01*
X122795808Y-64904587D01*
X122700044Y-64640186D01*
X122410429Y-64499296D01*
X122098892Y-64417616D01*
X121777405Y-64398282D01*
X121458325Y-64442039D01*
X121153912Y-64547205D01*
X120979956Y-64640186D01*
X120884192Y-64904587D01*
X118462497Y-64904587D01*
X118429502Y-64795820D01*
X118370537Y-64685506D01*
X118291185Y-64588815D01*
X118194494Y-64509463D01*
X118084180Y-64450498D01*
X117964482Y-64414188D01*
X117840000Y-64401928D01*
X115840000Y-64401928D01*
X115715518Y-64414188D01*
X115595820Y-64450498D01*
X115485506Y-64509463D01*
X115388815Y-64588815D01*
X115309463Y-64685506D01*
X115250498Y-64795820D01*
X115214188Y-64915518D01*
X115201928Y-65040000D01*
X114198000Y-65040000D01*
X114198000Y-63462000D01*
X126577928Y-63462000D01*
X126577928Y-65062000D01*
X126590188Y-65186482D01*
X126626498Y-65306180D01*
X126685463Y-65416494D01*
X126764815Y-65513185D01*
X126861506Y-65592537D01*
X126971820Y-65651502D01*
X127091518Y-65687812D01*
X127216000Y-65700072D01*
X128816000Y-65700072D01*
X128940482Y-65687812D01*
X129060180Y-65651502D01*
X129170494Y-65592537D01*
X129267185Y-65513185D01*
X129346537Y-65416494D01*
X129405502Y-65306180D01*
X129421117Y-65254702D01*
X129702903Y-65254702D01*
X129774486Y-65498671D01*
X130029996Y-65619571D01*
X130304184Y-65688300D01*
X130586512Y-65702217D01*
X130866130Y-65660787D01*
X131132292Y-65565603D01*
X131257514Y-65498671D01*
X131329097Y-65254702D01*
X131201285Y-65126890D01*
X138131524Y-65126890D01*
X138176175Y-65274099D01*
X138301359Y-65536920D01*
X138475412Y-65770269D01*
X138691645Y-65965178D01*
X138941748Y-66114157D01*
X139216109Y-66211481D01*
X139446000Y-66090814D01*
X139446000Y-64897000D01*
X139700000Y-64897000D01*
X139700000Y-66090814D01*
X139929891Y-66211481D01*
X140204252Y-66114157D01*
X140454355Y-65965178D01*
X140670588Y-65770269D01*
X140843000Y-65539120D01*
X141015412Y-65770269D01*
X141231645Y-65965178D01*
X141481748Y-66114157D01*
X141756109Y-66211481D01*
X141986000Y-66090814D01*
X141986000Y-64897000D01*
X139700000Y-64897000D01*
X139446000Y-64897000D01*
X138252845Y-64897000D01*
X138131524Y-65126890D01*
X131201285Y-65126890D01*
X130516000Y-64441605D01*
X129702903Y-65254702D01*
X129421117Y-65254702D01*
X129441812Y-65186482D01*
X129454072Y-65062000D01*
X129454072Y-65054785D01*
X129523298Y-65075097D01*
X130336395Y-64262000D01*
X130695605Y-64262000D01*
X131508702Y-65075097D01*
X131752671Y-65003514D01*
X131873571Y-64748004D01*
X131942300Y-64473816D01*
X131956217Y-64191488D01*
X131914787Y-63911870D01*
X131819603Y-63645708D01*
X131752671Y-63520486D01*
X131508702Y-63448903D01*
X130695605Y-64262000D01*
X130336395Y-64262000D01*
X129523298Y-63448903D01*
X129454072Y-63469215D01*
X129454072Y-63462000D01*
X129441812Y-63337518D01*
X129421118Y-63269298D01*
X129702903Y-63269298D01*
X130516000Y-64082395D01*
X131329097Y-63269298D01*
X131257514Y-63025329D01*
X131002004Y-62904429D01*
X130727816Y-62835700D01*
X130445488Y-62821783D01*
X130165870Y-62863213D01*
X129899708Y-62958397D01*
X129774486Y-63025329D01*
X129702903Y-63269298D01*
X129421118Y-63269298D01*
X129405502Y-63217820D01*
X129346537Y-63107506D01*
X129267185Y-63010815D01*
X129170494Y-62931463D01*
X129060180Y-62872498D01*
X128940482Y-62836188D01*
X128816000Y-62823928D01*
X127216000Y-62823928D01*
X127091518Y-62836188D01*
X126971820Y-62872498D01*
X126861506Y-62931463D01*
X126764815Y-63010815D01*
X126685463Y-63107506D01*
X126626498Y-63217820D01*
X126590188Y-63337518D01*
X126577928Y-63462000D01*
X114198000Y-63462000D01*
X114198000Y-60858000D01*
X138358104Y-60858000D01*
X138271815Y-60928815D01*
G37*
%TD.AperFunction*%
%TD*%
M02*
