%TF.GenerationSoftware,KiCad,Pcbnew,5.1.8-db9833491~88~ubuntu18.04.1*%
%TF.CreationDate,2021-01-02T19:35:10+01:00*%
%TF.ProjectId,Breadboard_power_supply,42726561-6462-46f6-9172-645f706f7765,Rev A*%
%TF.SameCoordinates,Original*%
%TF.FileFunction,Legend,Top*%
%TF.FilePolarity,Positive*%
%FSLAX46Y46*%
G04 Gerber Fmt 4.6, Leading zero omitted, Abs format (unit mm)*
G04 Created by KiCad (PCBNEW 5.1.8-db9833491~88~ubuntu18.04.1) date 2021-01-02 19:35:10*
%MOMM*%
%LPD*%
G01*
G04 APERTURE LIST*
%ADD10C,0.150000*%
%ADD11C,0.120000*%
%ADD12C,0.100000*%
G04 APERTURE END LIST*
D10*
X132945380Y-66206714D02*
X132945380Y-66873380D01*
X132707285Y-65825761D02*
X132469190Y-66540047D01*
X133088238Y-66540047D01*
X133373952Y-65873380D02*
X134040619Y-65873380D01*
X133612047Y-66873380D01*
X135612047Y-66206714D02*
X135612047Y-66873380D01*
X135183476Y-66206714D02*
X135183476Y-66730523D01*
X135231095Y-66825761D01*
X135326333Y-66873380D01*
X135469190Y-66873380D01*
X135564428Y-66825761D01*
X135612047Y-66778142D01*
X136421571Y-66349571D02*
X136088238Y-66349571D01*
X136088238Y-66873380D02*
X136088238Y-65873380D01*
X136564428Y-65873380D01*
X123833190Y-69762714D02*
X123833190Y-70429380D01*
X123595095Y-69381761D02*
X123357000Y-70096047D01*
X123976047Y-70096047D01*
X124261761Y-69429380D02*
X124928428Y-69429380D01*
X124499857Y-70429380D01*
X125499857Y-69429380D02*
X125595095Y-69429380D01*
X125690333Y-69477000D01*
X125737952Y-69524619D01*
X125785571Y-69619857D01*
X125833190Y-69810333D01*
X125833190Y-70048428D01*
X125785571Y-70238904D01*
X125737952Y-70334142D01*
X125690333Y-70381761D01*
X125595095Y-70429380D01*
X125499857Y-70429380D01*
X125404619Y-70381761D01*
X125357000Y-70334142D01*
X125309380Y-70238904D01*
X125261761Y-70048428D01*
X125261761Y-69810333D01*
X125309380Y-69619857D01*
X125357000Y-69524619D01*
X125404619Y-69477000D01*
X125499857Y-69429380D01*
X127452238Y-69762714D02*
X127452238Y-70429380D01*
X127023666Y-69762714D02*
X127023666Y-70286523D01*
X127071285Y-70381761D01*
X127166523Y-70429380D01*
X127309380Y-70429380D01*
X127404619Y-70381761D01*
X127452238Y-70334142D01*
X128261761Y-69905571D02*
X127928428Y-69905571D01*
X127928428Y-70429380D02*
X127928428Y-69429380D01*
X128404619Y-69429380D01*
X130516380Y-106497285D02*
X130516380Y-106973476D01*
X130992571Y-107021095D01*
X130944952Y-106973476D01*
X130897333Y-106878238D01*
X130897333Y-106640142D01*
X130944952Y-106544904D01*
X130992571Y-106497285D01*
X131087809Y-106449666D01*
X131325904Y-106449666D01*
X131421142Y-106497285D01*
X131468761Y-106544904D01*
X131516380Y-106640142D01*
X131516380Y-106878238D01*
X131468761Y-106973476D01*
X131421142Y-107021095D01*
X130516380Y-105592523D02*
X130516380Y-105783000D01*
X130564000Y-105878238D01*
X130611619Y-105925857D01*
X130754476Y-106021095D01*
X130944952Y-106068714D01*
X131325904Y-106068714D01*
X131421142Y-106021095D01*
X131468761Y-105973476D01*
X131516380Y-105878238D01*
X131516380Y-105687761D01*
X131468761Y-105592523D01*
X131421142Y-105544904D01*
X131325904Y-105497285D01*
X131087809Y-105497285D01*
X130992571Y-105544904D01*
X130944952Y-105592523D01*
X130897333Y-105687761D01*
X130897333Y-105878238D01*
X130944952Y-105973476D01*
X130992571Y-106021095D01*
X131087809Y-106068714D01*
X130516380Y-104878238D02*
X130516380Y-104783000D01*
X130564000Y-104687761D01*
X130611619Y-104640142D01*
X130706857Y-104592523D01*
X130897333Y-104544904D01*
X131135428Y-104544904D01*
X131325904Y-104592523D01*
X131421142Y-104640142D01*
X131468761Y-104687761D01*
X131516380Y-104783000D01*
X131516380Y-104878238D01*
X131468761Y-104973476D01*
X131421142Y-105021095D01*
X131325904Y-105068714D01*
X131135428Y-105116333D01*
X130897333Y-105116333D01*
X130706857Y-105068714D01*
X130611619Y-105021095D01*
X130564000Y-104973476D01*
X130516380Y-104878238D01*
X131516380Y-103544904D02*
X131040190Y-103878238D01*
X131516380Y-104116333D02*
X130516380Y-104116333D01*
X130516380Y-103735380D01*
X130564000Y-103640142D01*
X130611619Y-103592523D01*
X130706857Y-103544904D01*
X130849714Y-103544904D01*
X130944952Y-103592523D01*
X130992571Y-103640142D01*
X131040190Y-103735380D01*
X131040190Y-104116333D01*
X129373380Y-77033285D02*
X129373380Y-77509476D01*
X129849571Y-77557095D01*
X129801952Y-77509476D01*
X129754333Y-77414238D01*
X129754333Y-77176142D01*
X129801952Y-77080904D01*
X129849571Y-77033285D01*
X129944809Y-76985666D01*
X130182904Y-76985666D01*
X130278142Y-77033285D01*
X130325761Y-77080904D01*
X130373380Y-77176142D01*
X130373380Y-77414238D01*
X130325761Y-77509476D01*
X130278142Y-77557095D01*
X129373380Y-76128523D02*
X129373380Y-76319000D01*
X129421000Y-76414238D01*
X129468619Y-76461857D01*
X129611476Y-76557095D01*
X129801952Y-76604714D01*
X130182904Y-76604714D01*
X130278142Y-76557095D01*
X130325761Y-76509476D01*
X130373380Y-76414238D01*
X130373380Y-76223761D01*
X130325761Y-76128523D01*
X130278142Y-76080904D01*
X130182904Y-76033285D01*
X129944809Y-76033285D01*
X129849571Y-76080904D01*
X129801952Y-76128523D01*
X129754333Y-76223761D01*
X129754333Y-76414238D01*
X129801952Y-76509476D01*
X129849571Y-76557095D01*
X129944809Y-76604714D01*
X129373380Y-75414238D02*
X129373380Y-75319000D01*
X129421000Y-75223761D01*
X129468619Y-75176142D01*
X129563857Y-75128523D01*
X129754333Y-75080904D01*
X129992428Y-75080904D01*
X130182904Y-75128523D01*
X130278142Y-75176142D01*
X130325761Y-75223761D01*
X130373380Y-75319000D01*
X130373380Y-75414238D01*
X130325761Y-75509476D01*
X130278142Y-75557095D01*
X130182904Y-75604714D01*
X129992428Y-75652333D01*
X129754333Y-75652333D01*
X129563857Y-75604714D01*
X129468619Y-75557095D01*
X129421000Y-75509476D01*
X129373380Y-75414238D01*
X130373380Y-74080904D02*
X129897190Y-74414238D01*
X130373380Y-74652333D02*
X129373380Y-74652333D01*
X129373380Y-74271380D01*
X129421000Y-74176142D01*
X129468619Y-74128523D01*
X129563857Y-74080904D01*
X129706714Y-74080904D01*
X129801952Y-74128523D01*
X129849571Y-74176142D01*
X129897190Y-74271380D01*
X129897190Y-74652333D01*
X136969523Y-61174380D02*
X136493333Y-61174380D01*
X136445714Y-61650571D01*
X136493333Y-61602952D01*
X136588571Y-61555333D01*
X136826666Y-61555333D01*
X136921904Y-61602952D01*
X136969523Y-61650571D01*
X137017142Y-61745809D01*
X137017142Y-61983904D01*
X136969523Y-62079142D01*
X136921904Y-62126761D01*
X136826666Y-62174380D01*
X136588571Y-62174380D01*
X136493333Y-62126761D01*
X136445714Y-62079142D01*
X137302857Y-61174380D02*
X137636190Y-62174380D01*
X137969523Y-61174380D01*
X136207523Y-106894380D02*
X135731333Y-106894380D01*
X135683714Y-107370571D01*
X135731333Y-107322952D01*
X135826571Y-107275333D01*
X136064666Y-107275333D01*
X136159904Y-107322952D01*
X136207523Y-107370571D01*
X136255142Y-107465809D01*
X136255142Y-107703904D01*
X136207523Y-107799142D01*
X136159904Y-107846761D01*
X136064666Y-107894380D01*
X135826571Y-107894380D01*
X135731333Y-107846761D01*
X135683714Y-107799142D01*
X136540857Y-106894380D02*
X136874190Y-107894380D01*
X137207523Y-106894380D01*
D11*
%TO.C,C1*%
X126080759Y-62108000D02*
X126080759Y-62738000D01*
X125765759Y-62423000D02*
X126395759Y-62423000D01*
X132507000Y-63860000D02*
X132507000Y-64664000D01*
X132467000Y-63629000D02*
X132467000Y-64895000D01*
X132427000Y-63460000D02*
X132427000Y-65064000D01*
X132387000Y-63322000D02*
X132387000Y-65202000D01*
X132347000Y-63203000D02*
X132347000Y-65321000D01*
X132307000Y-63097000D02*
X132307000Y-65427000D01*
X132267000Y-63000000D02*
X132267000Y-65524000D01*
X132227000Y-62912000D02*
X132227000Y-65612000D01*
X132187000Y-62830000D02*
X132187000Y-65694000D01*
X132147000Y-62753000D02*
X132147000Y-65771000D01*
X132107000Y-62681000D02*
X132107000Y-65843000D01*
X132067000Y-62612000D02*
X132067000Y-65912000D01*
X132027000Y-62548000D02*
X132027000Y-65976000D01*
X131987000Y-62486000D02*
X131987000Y-66038000D01*
X131947000Y-62428000D02*
X131947000Y-66096000D01*
X131907000Y-62372000D02*
X131907000Y-66152000D01*
X131867000Y-62318000D02*
X131867000Y-66206000D01*
X131827000Y-62267000D02*
X131827000Y-66257000D01*
X131787000Y-62218000D02*
X131787000Y-66306000D01*
X131747000Y-62170000D02*
X131747000Y-66354000D01*
X131707000Y-62125000D02*
X131707000Y-66399000D01*
X131667000Y-62080000D02*
X131667000Y-66444000D01*
X131627000Y-62038000D02*
X131627000Y-66486000D01*
X131587000Y-61997000D02*
X131587000Y-66527000D01*
X131547000Y-65302000D02*
X131547000Y-66567000D01*
X131547000Y-61957000D02*
X131547000Y-63222000D01*
X131507000Y-65302000D02*
X131507000Y-66605000D01*
X131507000Y-61919000D02*
X131507000Y-63222000D01*
X131467000Y-65302000D02*
X131467000Y-66642000D01*
X131467000Y-61882000D02*
X131467000Y-63222000D01*
X131427000Y-65302000D02*
X131427000Y-66678000D01*
X131427000Y-61846000D02*
X131427000Y-63222000D01*
X131387000Y-65302000D02*
X131387000Y-66712000D01*
X131387000Y-61812000D02*
X131387000Y-63222000D01*
X131347000Y-65302000D02*
X131347000Y-66746000D01*
X131347000Y-61778000D02*
X131347000Y-63222000D01*
X131307000Y-65302000D02*
X131307000Y-66778000D01*
X131307000Y-61746000D02*
X131307000Y-63222000D01*
X131267000Y-65302000D02*
X131267000Y-66810000D01*
X131267000Y-61714000D02*
X131267000Y-63222000D01*
X131227000Y-65302000D02*
X131227000Y-66840000D01*
X131227000Y-61684000D02*
X131227000Y-63222000D01*
X131187000Y-65302000D02*
X131187000Y-66869000D01*
X131187000Y-61655000D02*
X131187000Y-63222000D01*
X131147000Y-65302000D02*
X131147000Y-66898000D01*
X131147000Y-61626000D02*
X131147000Y-63222000D01*
X131107000Y-65302000D02*
X131107000Y-66926000D01*
X131107000Y-61598000D02*
X131107000Y-63222000D01*
X131067000Y-65302000D02*
X131067000Y-66952000D01*
X131067000Y-61572000D02*
X131067000Y-63222000D01*
X131027000Y-65302000D02*
X131027000Y-66978000D01*
X131027000Y-61546000D02*
X131027000Y-63222000D01*
X130987000Y-65302000D02*
X130987000Y-67004000D01*
X130987000Y-61520000D02*
X130987000Y-63222000D01*
X130947000Y-65302000D02*
X130947000Y-67028000D01*
X130947000Y-61496000D02*
X130947000Y-63222000D01*
X130907000Y-65302000D02*
X130907000Y-67052000D01*
X130907000Y-61472000D02*
X130907000Y-63222000D01*
X130867000Y-65302000D02*
X130867000Y-67074000D01*
X130867000Y-61450000D02*
X130867000Y-63222000D01*
X130827000Y-65302000D02*
X130827000Y-67096000D01*
X130827000Y-61428000D02*
X130827000Y-63222000D01*
X130787000Y-65302000D02*
X130787000Y-67118000D01*
X130787000Y-61406000D02*
X130787000Y-63222000D01*
X130747000Y-65302000D02*
X130747000Y-67138000D01*
X130747000Y-61386000D02*
X130747000Y-63222000D01*
X130707000Y-65302000D02*
X130707000Y-67158000D01*
X130707000Y-61366000D02*
X130707000Y-63222000D01*
X130667000Y-65302000D02*
X130667000Y-67178000D01*
X130667000Y-61346000D02*
X130667000Y-63222000D01*
X130627000Y-65302000D02*
X130627000Y-67196000D01*
X130627000Y-61328000D02*
X130627000Y-63222000D01*
X130587000Y-65302000D02*
X130587000Y-67214000D01*
X130587000Y-61310000D02*
X130587000Y-63222000D01*
X130547000Y-65302000D02*
X130547000Y-67232000D01*
X130547000Y-61292000D02*
X130547000Y-63222000D01*
X130507000Y-65302000D02*
X130507000Y-67248000D01*
X130507000Y-61276000D02*
X130507000Y-63222000D01*
X130467000Y-65302000D02*
X130467000Y-67264000D01*
X130467000Y-61260000D02*
X130467000Y-63222000D01*
X130427000Y-65302000D02*
X130427000Y-67280000D01*
X130427000Y-61244000D02*
X130427000Y-63222000D01*
X130387000Y-65302000D02*
X130387000Y-67295000D01*
X130387000Y-61229000D02*
X130387000Y-63222000D01*
X130347000Y-65302000D02*
X130347000Y-67309000D01*
X130347000Y-61215000D02*
X130347000Y-63222000D01*
X130307000Y-65302000D02*
X130307000Y-67323000D01*
X130307000Y-61201000D02*
X130307000Y-63222000D01*
X130267000Y-65302000D02*
X130267000Y-67336000D01*
X130267000Y-61188000D02*
X130267000Y-63222000D01*
X130227000Y-65302000D02*
X130227000Y-67348000D01*
X130227000Y-61176000D02*
X130227000Y-63222000D01*
X130187000Y-65302000D02*
X130187000Y-67360000D01*
X130187000Y-61164000D02*
X130187000Y-63222000D01*
X130147000Y-65302000D02*
X130147000Y-67372000D01*
X130147000Y-61152000D02*
X130147000Y-63222000D01*
X130107000Y-65302000D02*
X130107000Y-67383000D01*
X130107000Y-61141000D02*
X130107000Y-63222000D01*
X130067000Y-65302000D02*
X130067000Y-67393000D01*
X130067000Y-61131000D02*
X130067000Y-63222000D01*
X130027000Y-65302000D02*
X130027000Y-67403000D01*
X130027000Y-61121000D02*
X130027000Y-63222000D01*
X129987000Y-65302000D02*
X129987000Y-67412000D01*
X129987000Y-61112000D02*
X129987000Y-63222000D01*
X129946000Y-65302000D02*
X129946000Y-67421000D01*
X129946000Y-61103000D02*
X129946000Y-63222000D01*
X129906000Y-65302000D02*
X129906000Y-67429000D01*
X129906000Y-61095000D02*
X129906000Y-63222000D01*
X129866000Y-65302000D02*
X129866000Y-67437000D01*
X129866000Y-61087000D02*
X129866000Y-63222000D01*
X129826000Y-65302000D02*
X129826000Y-67444000D01*
X129826000Y-61080000D02*
X129826000Y-63222000D01*
X129786000Y-65302000D02*
X129786000Y-67451000D01*
X129786000Y-61073000D02*
X129786000Y-63222000D01*
X129746000Y-65302000D02*
X129746000Y-67457000D01*
X129746000Y-61067000D02*
X129746000Y-63222000D01*
X129706000Y-65302000D02*
X129706000Y-67463000D01*
X129706000Y-61061000D02*
X129706000Y-63222000D01*
X129666000Y-65302000D02*
X129666000Y-67468000D01*
X129666000Y-61056000D02*
X129666000Y-63222000D01*
X129626000Y-65302000D02*
X129626000Y-67473000D01*
X129626000Y-61051000D02*
X129626000Y-63222000D01*
X129586000Y-65302000D02*
X129586000Y-67477000D01*
X129586000Y-61047000D02*
X129586000Y-63222000D01*
X129546000Y-65302000D02*
X129546000Y-67480000D01*
X129546000Y-61044000D02*
X129546000Y-63222000D01*
X129506000Y-65302000D02*
X129506000Y-67484000D01*
X129506000Y-61040000D02*
X129506000Y-63222000D01*
X129466000Y-61038000D02*
X129466000Y-67486000D01*
X129426000Y-61035000D02*
X129426000Y-67489000D01*
X129386000Y-61034000D02*
X129386000Y-67490000D01*
X129346000Y-61032000D02*
X129346000Y-67492000D01*
X129306000Y-61032000D02*
X129306000Y-67492000D01*
X129266000Y-61032000D02*
X129266000Y-67492000D01*
X132536000Y-64262000D02*
G75*
G03*
X132536000Y-64262000I-3270000J0D01*
G01*
%TO.C,C2*%
X114360354Y-62665000D02*
X114360354Y-63665000D01*
X113860354Y-63165000D02*
X114860354Y-63165000D01*
X124421000Y-65441000D02*
X124421000Y-66639000D01*
X124381000Y-65178000D02*
X124381000Y-66902000D01*
X124341000Y-64978000D02*
X124341000Y-67102000D01*
X124301000Y-64810000D02*
X124301000Y-67270000D01*
X124261000Y-64662000D02*
X124261000Y-67418000D01*
X124221000Y-64530000D02*
X124221000Y-67550000D01*
X124181000Y-64410000D02*
X124181000Y-67670000D01*
X124141000Y-64298000D02*
X124141000Y-67782000D01*
X124101000Y-64194000D02*
X124101000Y-67886000D01*
X124061000Y-64096000D02*
X124061000Y-67984000D01*
X124021000Y-64003000D02*
X124021000Y-68077000D01*
X123981000Y-63915000D02*
X123981000Y-68165000D01*
X123941000Y-63831000D02*
X123941000Y-68249000D01*
X123901000Y-63751000D02*
X123901000Y-68329000D01*
X123861000Y-63675000D02*
X123861000Y-68405000D01*
X123821000Y-63601000D02*
X123821000Y-68479000D01*
X123781000Y-63530000D02*
X123781000Y-68550000D01*
X123741000Y-63461000D02*
X123741000Y-68619000D01*
X123701000Y-63395000D02*
X123701000Y-68685000D01*
X123661000Y-63331000D02*
X123661000Y-68749000D01*
X123621000Y-63270000D02*
X123621000Y-68810000D01*
X123581000Y-63210000D02*
X123581000Y-68870000D01*
X123541000Y-63151000D02*
X123541000Y-68929000D01*
X123501000Y-63095000D02*
X123501000Y-68985000D01*
X123461000Y-63040000D02*
X123461000Y-69040000D01*
X123421000Y-62986000D02*
X123421000Y-69094000D01*
X123381000Y-62934000D02*
X123381000Y-69146000D01*
X123341000Y-62884000D02*
X123341000Y-69196000D01*
X123301000Y-62834000D02*
X123301000Y-69246000D01*
X123261000Y-62786000D02*
X123261000Y-69294000D01*
X123221000Y-62739000D02*
X123221000Y-69341000D01*
X123181000Y-62693000D02*
X123181000Y-69387000D01*
X123141000Y-62648000D02*
X123141000Y-69432000D01*
X123101000Y-62604000D02*
X123101000Y-69476000D01*
X123061000Y-67281000D02*
X123061000Y-69518000D01*
X123061000Y-62562000D02*
X123061000Y-64799000D01*
X123021000Y-67281000D02*
X123021000Y-69560000D01*
X123021000Y-62520000D02*
X123021000Y-64799000D01*
X122981000Y-67281000D02*
X122981000Y-69601000D01*
X122981000Y-62479000D02*
X122981000Y-64799000D01*
X122941000Y-67281000D02*
X122941000Y-69641000D01*
X122941000Y-62439000D02*
X122941000Y-64799000D01*
X122901000Y-67281000D02*
X122901000Y-69680000D01*
X122901000Y-62400000D02*
X122901000Y-64799000D01*
X122861000Y-67281000D02*
X122861000Y-69719000D01*
X122861000Y-62361000D02*
X122861000Y-64799000D01*
X122821000Y-67281000D02*
X122821000Y-69756000D01*
X122821000Y-62324000D02*
X122821000Y-64799000D01*
X122781000Y-67281000D02*
X122781000Y-69793000D01*
X122781000Y-62287000D02*
X122781000Y-64799000D01*
X122741000Y-67281000D02*
X122741000Y-69829000D01*
X122741000Y-62251000D02*
X122741000Y-64799000D01*
X122701000Y-67281000D02*
X122701000Y-69864000D01*
X122701000Y-62216000D02*
X122701000Y-64799000D01*
X122661000Y-67281000D02*
X122661000Y-69898000D01*
X122661000Y-62182000D02*
X122661000Y-64799000D01*
X122621000Y-67281000D02*
X122621000Y-69932000D01*
X122621000Y-62148000D02*
X122621000Y-64799000D01*
X122581000Y-67281000D02*
X122581000Y-69965000D01*
X122581000Y-62115000D02*
X122581000Y-64799000D01*
X122541000Y-67281000D02*
X122541000Y-69997000D01*
X122541000Y-62083000D02*
X122541000Y-64799000D01*
X122501000Y-67281000D02*
X122501000Y-70029000D01*
X122501000Y-62051000D02*
X122501000Y-64799000D01*
X122461000Y-67281000D02*
X122461000Y-70060000D01*
X122461000Y-62020000D02*
X122461000Y-64799000D01*
X122421000Y-67281000D02*
X122421000Y-70090000D01*
X122421000Y-61990000D02*
X122421000Y-64799000D01*
X122381000Y-67281000D02*
X122381000Y-70120000D01*
X122381000Y-61960000D02*
X122381000Y-64799000D01*
X122341000Y-67281000D02*
X122341000Y-70150000D01*
X122341000Y-61930000D02*
X122341000Y-64799000D01*
X122301000Y-67281000D02*
X122301000Y-70178000D01*
X122301000Y-61902000D02*
X122301000Y-64799000D01*
X122261000Y-67281000D02*
X122261000Y-70206000D01*
X122261000Y-61874000D02*
X122261000Y-64799000D01*
X122221000Y-67281000D02*
X122221000Y-70234000D01*
X122221000Y-61846000D02*
X122221000Y-64799000D01*
X122181000Y-67281000D02*
X122181000Y-70261000D01*
X122181000Y-61819000D02*
X122181000Y-64799000D01*
X122141000Y-67281000D02*
X122141000Y-70287000D01*
X122141000Y-61793000D02*
X122141000Y-64799000D01*
X122101000Y-67281000D02*
X122101000Y-70313000D01*
X122101000Y-61767000D02*
X122101000Y-64799000D01*
X122061000Y-67281000D02*
X122061000Y-70338000D01*
X122061000Y-61742000D02*
X122061000Y-64799000D01*
X122021000Y-67281000D02*
X122021000Y-70363000D01*
X122021000Y-61717000D02*
X122021000Y-64799000D01*
X121981000Y-67281000D02*
X121981000Y-70387000D01*
X121981000Y-61693000D02*
X121981000Y-64799000D01*
X121941000Y-67281000D02*
X121941000Y-70411000D01*
X121941000Y-61669000D02*
X121941000Y-64799000D01*
X121901000Y-67281000D02*
X121901000Y-70435000D01*
X121901000Y-61645000D02*
X121901000Y-64799000D01*
X121861000Y-67281000D02*
X121861000Y-70457000D01*
X121861000Y-61623000D02*
X121861000Y-64799000D01*
X121821000Y-67281000D02*
X121821000Y-70480000D01*
X121821000Y-61600000D02*
X121821000Y-64799000D01*
X121781000Y-67281000D02*
X121781000Y-70502000D01*
X121781000Y-61578000D02*
X121781000Y-64799000D01*
X121741000Y-67281000D02*
X121741000Y-70523000D01*
X121741000Y-61557000D02*
X121741000Y-64799000D01*
X121701000Y-67281000D02*
X121701000Y-70544000D01*
X121701000Y-61536000D02*
X121701000Y-64799000D01*
X121661000Y-67281000D02*
X121661000Y-70565000D01*
X121661000Y-61515000D02*
X121661000Y-64799000D01*
X121621000Y-67281000D02*
X121621000Y-70585000D01*
X121621000Y-61495000D02*
X121621000Y-64799000D01*
X121581000Y-67281000D02*
X121581000Y-70604000D01*
X121581000Y-61476000D02*
X121581000Y-64799000D01*
X121541000Y-67281000D02*
X121541000Y-70624000D01*
X121541000Y-61456000D02*
X121541000Y-64799000D01*
X121501000Y-67281000D02*
X121501000Y-70643000D01*
X121501000Y-61437000D02*
X121501000Y-64799000D01*
X121461000Y-67281000D02*
X121461000Y-70661000D01*
X121461000Y-61419000D02*
X121461000Y-64799000D01*
X121421000Y-67281000D02*
X121421000Y-70679000D01*
X121421000Y-61401000D02*
X121421000Y-64799000D01*
X121381000Y-67281000D02*
X121381000Y-70697000D01*
X121381000Y-61383000D02*
X121381000Y-64799000D01*
X121341000Y-67281000D02*
X121341000Y-70714000D01*
X121341000Y-61366000D02*
X121341000Y-64799000D01*
X121301000Y-67281000D02*
X121301000Y-70730000D01*
X121301000Y-61350000D02*
X121301000Y-64799000D01*
X121261000Y-67281000D02*
X121261000Y-70747000D01*
X121261000Y-61333000D02*
X121261000Y-64799000D01*
X121221000Y-67281000D02*
X121221000Y-70763000D01*
X121221000Y-61317000D02*
X121221000Y-64799000D01*
X121181000Y-67281000D02*
X121181000Y-70778000D01*
X121181000Y-61302000D02*
X121181000Y-64799000D01*
X121141000Y-67281000D02*
X121141000Y-70794000D01*
X121141000Y-61286000D02*
X121141000Y-64799000D01*
X121101000Y-67281000D02*
X121101000Y-70808000D01*
X121101000Y-61272000D02*
X121101000Y-64799000D01*
X121061000Y-67281000D02*
X121061000Y-70823000D01*
X121061000Y-61257000D02*
X121061000Y-64799000D01*
X121021000Y-67281000D02*
X121021000Y-70837000D01*
X121021000Y-61243000D02*
X121021000Y-64799000D01*
X120981000Y-67281000D02*
X120981000Y-70851000D01*
X120981000Y-61229000D02*
X120981000Y-64799000D01*
X120941000Y-67281000D02*
X120941000Y-70864000D01*
X120941000Y-61216000D02*
X120941000Y-64799000D01*
X120901000Y-67281000D02*
X120901000Y-70877000D01*
X120901000Y-61203000D02*
X120901000Y-64799000D01*
X120861000Y-67281000D02*
X120861000Y-70890000D01*
X120861000Y-61190000D02*
X120861000Y-64799000D01*
X120821000Y-67281000D02*
X120821000Y-70902000D01*
X120821000Y-61178000D02*
X120821000Y-64799000D01*
X120781000Y-67281000D02*
X120781000Y-70914000D01*
X120781000Y-61166000D02*
X120781000Y-64799000D01*
X120741000Y-67281000D02*
X120741000Y-70925000D01*
X120741000Y-61155000D02*
X120741000Y-64799000D01*
X120701000Y-67281000D02*
X120701000Y-70937000D01*
X120701000Y-61143000D02*
X120701000Y-64799000D01*
X120661000Y-67281000D02*
X120661000Y-70947000D01*
X120661000Y-61133000D02*
X120661000Y-64799000D01*
X120621000Y-67281000D02*
X120621000Y-70958000D01*
X120621000Y-61122000D02*
X120621000Y-64799000D01*
X120581000Y-61112000D02*
X120581000Y-70968000D01*
X120541000Y-61102000D02*
X120541000Y-70978000D01*
X120501000Y-61093000D02*
X120501000Y-70987000D01*
X120461000Y-61084000D02*
X120461000Y-70996000D01*
X120421000Y-61075000D02*
X120421000Y-71005000D01*
X120381000Y-61066000D02*
X120381000Y-71014000D01*
X120341000Y-61058000D02*
X120341000Y-71022000D01*
X120301000Y-61050000D02*
X120301000Y-71030000D01*
X120261000Y-61043000D02*
X120261000Y-71037000D01*
X120221000Y-61036000D02*
X120221000Y-71044000D01*
X120181000Y-61029000D02*
X120181000Y-71051000D01*
X120141000Y-61022000D02*
X120141000Y-71058000D01*
X120101000Y-61016000D02*
X120101000Y-71064000D01*
X120061000Y-61010000D02*
X120061000Y-71070000D01*
X120020000Y-61005000D02*
X120020000Y-71075000D01*
X119980000Y-61000000D02*
X119980000Y-71080000D01*
X119940000Y-60995000D02*
X119940000Y-71085000D01*
X119900000Y-60990000D02*
X119900000Y-71090000D01*
X119860000Y-60986000D02*
X119860000Y-71094000D01*
X119820000Y-60982000D02*
X119820000Y-71098000D01*
X119780000Y-60978000D02*
X119780000Y-71102000D01*
X119740000Y-60975000D02*
X119740000Y-71105000D01*
X119700000Y-60972000D02*
X119700000Y-71108000D01*
X119660000Y-60970000D02*
X119660000Y-71110000D01*
X119620000Y-60967000D02*
X119620000Y-71113000D01*
X119580000Y-60965000D02*
X119580000Y-71115000D01*
X119540000Y-60963000D02*
X119540000Y-71117000D01*
X119500000Y-60962000D02*
X119500000Y-71118000D01*
X119460000Y-60961000D02*
X119460000Y-71119000D01*
X119420000Y-60960000D02*
X119420000Y-71120000D01*
X119380000Y-60960000D02*
X119380000Y-71120000D01*
X119340000Y-60960000D02*
X119340000Y-71120000D01*
X124460000Y-66040000D02*
G75*
G03*
X124460000Y-66040000I-5120000J0D01*
G01*
%TO.C,D1*%
X123878000Y-94307000D02*
X123878000Y-91367000D01*
X123878000Y-91367000D02*
X118438000Y-91367000D01*
X118438000Y-91367000D02*
X118438000Y-94307000D01*
X118438000Y-94307000D02*
X123878000Y-94307000D01*
X124898000Y-92837000D02*
X123878000Y-92837000D01*
X117418000Y-92837000D02*
X118438000Y-92837000D01*
X122978000Y-94307000D02*
X122978000Y-91367000D01*
X122858000Y-94307000D02*
X122858000Y-91367000D01*
X123098000Y-94307000D02*
X123098000Y-91367000D01*
%TO.C,D2*%
X119218000Y-81969000D02*
X119218000Y-84909000D01*
X119458000Y-81969000D02*
X119458000Y-84909000D01*
X119338000Y-81969000D02*
X119338000Y-84909000D01*
X124898000Y-83439000D02*
X123878000Y-83439000D01*
X117418000Y-83439000D02*
X118438000Y-83439000D01*
X123878000Y-81969000D02*
X118438000Y-81969000D01*
X123878000Y-84909000D02*
X123878000Y-81969000D01*
X118438000Y-84909000D02*
X123878000Y-84909000D01*
X118438000Y-81969000D02*
X118438000Y-84909000D01*
%TO.C,D3*%
X119218000Y-96066000D02*
X119218000Y-99006000D01*
X119458000Y-96066000D02*
X119458000Y-99006000D01*
X119338000Y-96066000D02*
X119338000Y-99006000D01*
X124898000Y-97536000D02*
X123878000Y-97536000D01*
X117418000Y-97536000D02*
X118438000Y-97536000D01*
X123878000Y-96066000D02*
X118438000Y-96066000D01*
X123878000Y-99006000D02*
X123878000Y-96066000D01*
X118438000Y-99006000D02*
X123878000Y-99006000D01*
X118438000Y-96066000D02*
X118438000Y-99006000D01*
%TO.C,D4*%
X118438000Y-86668000D02*
X118438000Y-89608000D01*
X118438000Y-89608000D02*
X123878000Y-89608000D01*
X123878000Y-89608000D02*
X123878000Y-86668000D01*
X123878000Y-86668000D02*
X118438000Y-86668000D01*
X117418000Y-88138000D02*
X118438000Y-88138000D01*
X124898000Y-88138000D02*
X123878000Y-88138000D01*
X119338000Y-86668000D02*
X119338000Y-89608000D01*
X119458000Y-86668000D02*
X119458000Y-89608000D01*
X119218000Y-86668000D02*
X119218000Y-89608000D01*
%TO.C,D5*%
X137229000Y-94360538D02*
G75*
G02*
X131679000Y-95905830I-2990000J-462D01*
G01*
X137229000Y-94361462D02*
G75*
G03*
X131679000Y-92816170I-2990000J462D01*
G01*
X136739000Y-94361000D02*
G75*
G03*
X136739000Y-94361000I-2500000J0D01*
G01*
X131679000Y-92816000D02*
X131679000Y-95906000D01*
%TO.C,D6*%
X131679000Y-71480000D02*
X131679000Y-74570000D01*
X136739000Y-73025000D02*
G75*
G03*
X136739000Y-73025000I-2500000J0D01*
G01*
X137229000Y-73025462D02*
G75*
G03*
X131679000Y-71480170I-2990000J462D01*
G01*
X137229000Y-73024538D02*
G75*
G02*
X131679000Y-74569830I-2990000J-462D01*
G01*
%TO.C,J1*%
X128929000Y-100951000D02*
X128929000Y-102691000D01*
X127189000Y-100951000D02*
X128929000Y-100951000D01*
X128689000Y-110391000D02*
X126689000Y-110391000D01*
X128689000Y-107591000D02*
X128689000Y-110391000D01*
X128689000Y-101191000D02*
X128689000Y-103991000D01*
X114089000Y-101191000D02*
X128689000Y-101191000D01*
X114089000Y-110391000D02*
X114089000Y-101191000D01*
X123089000Y-110391000D02*
X114089000Y-110391000D01*
%TO.C,J2*%
X138243000Y-60900000D02*
X139573000Y-60900000D01*
X138243000Y-62230000D02*
X138243000Y-60900000D01*
X140843000Y-60900000D02*
X143443000Y-60900000D01*
X140843000Y-63500000D02*
X140843000Y-60900000D01*
X138243000Y-63500000D02*
X140843000Y-63500000D01*
X143443000Y-60900000D02*
X143443000Y-66100000D01*
X138243000Y-63500000D02*
X138243000Y-66100000D01*
X138243000Y-66100000D02*
X143443000Y-66100000D01*
%TO.C,J3*%
X138243000Y-111085000D02*
X143443000Y-111085000D01*
X138243000Y-108485000D02*
X138243000Y-111085000D01*
X143443000Y-105885000D02*
X143443000Y-111085000D01*
X138243000Y-108485000D02*
X140843000Y-108485000D01*
X140843000Y-108485000D02*
X140843000Y-105885000D01*
X140843000Y-105885000D02*
X143443000Y-105885000D01*
X138243000Y-107215000D02*
X138243000Y-105885000D01*
X138243000Y-105885000D02*
X139573000Y-105885000D01*
%TO.C,R1*%
X134390000Y-101759000D02*
X134720000Y-101759000D01*
X134720000Y-101759000D02*
X134720000Y-108299000D01*
X134720000Y-108299000D02*
X134390000Y-108299000D01*
X132310000Y-101759000D02*
X131980000Y-101759000D01*
X131980000Y-101759000D02*
X131980000Y-108299000D01*
X131980000Y-108299000D02*
X132310000Y-108299000D01*
%TO.C,R2*%
X129005000Y-72422000D02*
X128675000Y-72422000D01*
X129005000Y-78962000D02*
X129005000Y-72422000D01*
X128675000Y-78962000D02*
X129005000Y-78962000D01*
X126265000Y-72422000D02*
X126595000Y-72422000D01*
X126265000Y-78962000D02*
X126265000Y-72422000D01*
X126595000Y-78962000D02*
X126265000Y-78962000D01*
D12*
%TO.C,SW1*%
X131758000Y-77773000D02*
X131758000Y-78273000D01*
X131758000Y-77773000D02*
X132258000Y-77773000D01*
X131758000Y-89673000D02*
X132258000Y-89673000D01*
X131758000Y-89673000D02*
X131758000Y-89173000D01*
X135958000Y-89673000D02*
X135458000Y-89673000D01*
X135958000Y-89673000D02*
X135958000Y-89173000D01*
X135958000Y-77773000D02*
X135458000Y-77773000D01*
X135958000Y-77773000D02*
X135958000Y-78273000D01*
D11*
%TO.C,U1*%
X121358000Y-74073000D02*
X121358000Y-75583000D01*
X117657000Y-74073000D02*
X117657000Y-75583000D01*
X114387000Y-75583000D02*
X124627000Y-75583000D01*
X124627000Y-74073000D02*
X124627000Y-78714000D01*
X114387000Y-74073000D02*
X114387000Y-78714000D01*
X114387000Y-78714000D02*
X124627000Y-78714000D01*
X114387000Y-74073000D02*
X124627000Y-74073000D01*
%TO.C,C1*%
D10*
X132675333Y-61825142D02*
X132627714Y-61872761D01*
X132484857Y-61920380D01*
X132389619Y-61920380D01*
X132246761Y-61872761D01*
X132151523Y-61777523D01*
X132103904Y-61682285D01*
X132056285Y-61491809D01*
X132056285Y-61348952D01*
X132103904Y-61158476D01*
X132151523Y-61063238D01*
X132246761Y-60968000D01*
X132389619Y-60920380D01*
X132484857Y-60920380D01*
X132627714Y-60968000D01*
X132675333Y-61015619D01*
X133627714Y-61920380D02*
X133056285Y-61920380D01*
X133342000Y-61920380D02*
X133342000Y-60920380D01*
X133246761Y-61063238D01*
X133151523Y-61158476D01*
X133056285Y-61206095D01*
%TO.C,C2*%
X123531333Y-61698142D02*
X123483714Y-61745761D01*
X123340857Y-61793380D01*
X123245619Y-61793380D01*
X123102761Y-61745761D01*
X123007523Y-61650523D01*
X122959904Y-61555285D01*
X122912285Y-61364809D01*
X122912285Y-61221952D01*
X122959904Y-61031476D01*
X123007523Y-60936238D01*
X123102761Y-60841000D01*
X123245619Y-60793380D01*
X123340857Y-60793380D01*
X123483714Y-60841000D01*
X123531333Y-60888619D01*
X123912285Y-60888619D02*
X123959904Y-60841000D01*
X124055142Y-60793380D01*
X124293238Y-60793380D01*
X124388476Y-60841000D01*
X124436095Y-60888619D01*
X124483714Y-60983857D01*
X124483714Y-61079095D01*
X124436095Y-61221952D01*
X123864666Y-61793380D01*
X124483714Y-61793380D01*
%TO.C,D1*%
X122451904Y-91003380D02*
X122451904Y-90003380D01*
X122690000Y-90003380D01*
X122832857Y-90051000D01*
X122928095Y-90146238D01*
X122975714Y-90241476D01*
X123023333Y-90431952D01*
X123023333Y-90574809D01*
X122975714Y-90765285D01*
X122928095Y-90860523D01*
X122832857Y-90955761D01*
X122690000Y-91003380D01*
X122451904Y-91003380D01*
X123975714Y-91003380D02*
X123404285Y-91003380D01*
X123690000Y-91003380D02*
X123690000Y-90003380D01*
X123594761Y-90146238D01*
X123499523Y-90241476D01*
X123404285Y-90289095D01*
X125976095Y-95389380D02*
X125976095Y-94389380D01*
X126547523Y-95389380D02*
X126118952Y-94817952D01*
X126547523Y-94389380D02*
X125976095Y-94960809D01*
%TO.C,D2*%
X118514904Y-81605380D02*
X118514904Y-80605380D01*
X118753000Y-80605380D01*
X118895857Y-80653000D01*
X118991095Y-80748238D01*
X119038714Y-80843476D01*
X119086333Y-81033952D01*
X119086333Y-81176809D01*
X119038714Y-81367285D01*
X118991095Y-81462523D01*
X118895857Y-81557761D01*
X118753000Y-81605380D01*
X118514904Y-81605380D01*
X119467285Y-80700619D02*
X119514904Y-80653000D01*
X119610142Y-80605380D01*
X119848238Y-80605380D01*
X119943476Y-80653000D01*
X119991095Y-80700619D01*
X120038714Y-80795857D01*
X120038714Y-80891095D01*
X119991095Y-81033952D01*
X119419666Y-81605380D01*
X120038714Y-81605380D01*
X115816095Y-81791380D02*
X115816095Y-80791380D01*
X116387523Y-81791380D02*
X115958952Y-81219952D01*
X116387523Y-80791380D02*
X115816095Y-81362809D01*
%TO.C,D3*%
X118260904Y-95702380D02*
X118260904Y-94702380D01*
X118499000Y-94702380D01*
X118641857Y-94750000D01*
X118737095Y-94845238D01*
X118784714Y-94940476D01*
X118832333Y-95130952D01*
X118832333Y-95273809D01*
X118784714Y-95464285D01*
X118737095Y-95559523D01*
X118641857Y-95654761D01*
X118499000Y-95702380D01*
X118260904Y-95702380D01*
X119165666Y-94702380D02*
X119784714Y-94702380D01*
X119451380Y-95083333D01*
X119594238Y-95083333D01*
X119689476Y-95130952D01*
X119737095Y-95178571D01*
X119784714Y-95273809D01*
X119784714Y-95511904D01*
X119737095Y-95607142D01*
X119689476Y-95654761D01*
X119594238Y-95702380D01*
X119308523Y-95702380D01*
X119213285Y-95654761D01*
X119165666Y-95607142D01*
X115816095Y-95888380D02*
X115816095Y-94888380D01*
X116387523Y-95888380D02*
X115958952Y-95316952D01*
X116387523Y-94888380D02*
X115816095Y-95459809D01*
%TO.C,D4*%
X118514904Y-86304380D02*
X118514904Y-85304380D01*
X118753000Y-85304380D01*
X118895857Y-85352000D01*
X118991095Y-85447238D01*
X119038714Y-85542476D01*
X119086333Y-85732952D01*
X119086333Y-85875809D01*
X119038714Y-86066285D01*
X118991095Y-86161523D01*
X118895857Y-86256761D01*
X118753000Y-86304380D01*
X118514904Y-86304380D01*
X119943476Y-85637714D02*
X119943476Y-86304380D01*
X119705380Y-85256761D02*
X119467285Y-85971047D01*
X120086333Y-85971047D01*
X115816095Y-86490380D02*
X115816095Y-85490380D01*
X116387523Y-86490380D02*
X115958952Y-85918952D01*
X116387523Y-85490380D02*
X115816095Y-86061809D01*
%TO.C,D5*%
X133500904Y-90853380D02*
X133500904Y-89853380D01*
X133739000Y-89853380D01*
X133881857Y-89901000D01*
X133977095Y-89996238D01*
X134024714Y-90091476D01*
X134072333Y-90281952D01*
X134072333Y-90424809D01*
X134024714Y-90615285D01*
X133977095Y-90710523D01*
X133881857Y-90805761D01*
X133739000Y-90853380D01*
X133500904Y-90853380D01*
X134977095Y-89853380D02*
X134500904Y-89853380D01*
X134453285Y-90329571D01*
X134500904Y-90281952D01*
X134596142Y-90234333D01*
X134834238Y-90234333D01*
X134929476Y-90281952D01*
X134977095Y-90329571D01*
X135024714Y-90424809D01*
X135024714Y-90662904D01*
X134977095Y-90758142D01*
X134929476Y-90805761D01*
X134834238Y-90853380D01*
X134596142Y-90853380D01*
X134500904Y-90805761D01*
X134453285Y-90758142D01*
%TO.C,D6*%
X133500904Y-69517380D02*
X133500904Y-68517380D01*
X133739000Y-68517380D01*
X133881857Y-68565000D01*
X133977095Y-68660238D01*
X134024714Y-68755476D01*
X134072333Y-68945952D01*
X134072333Y-69088809D01*
X134024714Y-69279285D01*
X133977095Y-69374523D01*
X133881857Y-69469761D01*
X133739000Y-69517380D01*
X133500904Y-69517380D01*
X134929476Y-68517380D02*
X134739000Y-68517380D01*
X134643761Y-68565000D01*
X134596142Y-68612619D01*
X134500904Y-68755476D01*
X134453285Y-68945952D01*
X134453285Y-69326904D01*
X134500904Y-69422142D01*
X134548523Y-69469761D01*
X134643761Y-69517380D01*
X134834238Y-69517380D01*
X134929476Y-69469761D01*
X134977095Y-69422142D01*
X135024714Y-69326904D01*
X135024714Y-69088809D01*
X134977095Y-68993571D01*
X134929476Y-68945952D01*
X134834238Y-68898333D01*
X134643761Y-68898333D01*
X134548523Y-68945952D01*
X134500904Y-68993571D01*
X134453285Y-69088809D01*
%TO.C,J1*%
X119105666Y-110993380D02*
X119105666Y-111707666D01*
X119058047Y-111850523D01*
X118962809Y-111945761D01*
X118819952Y-111993380D01*
X118724714Y-111993380D01*
X120105666Y-111993380D02*
X119534238Y-111993380D01*
X119819952Y-111993380D02*
X119819952Y-110993380D01*
X119724714Y-111136238D01*
X119629476Y-111231476D01*
X119534238Y-111279095D01*
%TO.C,J2*%
X136318666Y-63079380D02*
X136318666Y-63793666D01*
X136271047Y-63936523D01*
X136175809Y-64031761D01*
X136032952Y-64079380D01*
X135937714Y-64079380D01*
X136747238Y-63174619D02*
X136794857Y-63127000D01*
X136890095Y-63079380D01*
X137128190Y-63079380D01*
X137223428Y-63127000D01*
X137271047Y-63174619D01*
X137318666Y-63269857D01*
X137318666Y-63365095D01*
X137271047Y-63507952D01*
X136699619Y-64079380D01*
X137318666Y-64079380D01*
%TO.C,J3*%
X136318666Y-109053380D02*
X136318666Y-109767666D01*
X136271047Y-109910523D01*
X136175809Y-110005761D01*
X136032952Y-110053380D01*
X135937714Y-110053380D01*
X136699619Y-109053380D02*
X137318666Y-109053380D01*
X136985333Y-109434333D01*
X137128190Y-109434333D01*
X137223428Y-109481952D01*
X137271047Y-109529571D01*
X137318666Y-109624809D01*
X137318666Y-109862904D01*
X137271047Y-109958142D01*
X137223428Y-110005761D01*
X137128190Y-110053380D01*
X136842476Y-110053380D01*
X136747238Y-110005761D01*
X136699619Y-109958142D01*
%TO.C,R1*%
X136172380Y-105195666D02*
X135696190Y-105529000D01*
X136172380Y-105767095D02*
X135172380Y-105767095D01*
X135172380Y-105386142D01*
X135220000Y-105290904D01*
X135267619Y-105243285D01*
X135362857Y-105195666D01*
X135505714Y-105195666D01*
X135600952Y-105243285D01*
X135648571Y-105290904D01*
X135696190Y-105386142D01*
X135696190Y-105767095D01*
X136172380Y-104243285D02*
X136172380Y-104814714D01*
X136172380Y-104529000D02*
X135172380Y-104529000D01*
X135315238Y-104624238D01*
X135410476Y-104719476D01*
X135458095Y-104814714D01*
%TO.C,R2*%
X125717380Y-75858666D02*
X125241190Y-76192000D01*
X125717380Y-76430095D02*
X124717380Y-76430095D01*
X124717380Y-76049142D01*
X124765000Y-75953904D01*
X124812619Y-75906285D01*
X124907857Y-75858666D01*
X125050714Y-75858666D01*
X125145952Y-75906285D01*
X125193571Y-75953904D01*
X125241190Y-76049142D01*
X125241190Y-76430095D01*
X124812619Y-75477714D02*
X124765000Y-75430095D01*
X124717380Y-75334857D01*
X124717380Y-75096761D01*
X124765000Y-75001523D01*
X124812619Y-74953904D01*
X124907857Y-74906285D01*
X125003095Y-74906285D01*
X125145952Y-74953904D01*
X125717380Y-75525333D01*
X125717380Y-74906285D01*
%TO.C,SW1*%
X131242761Y-84916333D02*
X131290380Y-84773476D01*
X131290380Y-84535380D01*
X131242761Y-84440142D01*
X131195142Y-84392523D01*
X131099904Y-84344904D01*
X131004666Y-84344904D01*
X130909428Y-84392523D01*
X130861809Y-84440142D01*
X130814190Y-84535380D01*
X130766571Y-84725857D01*
X130718952Y-84821095D01*
X130671333Y-84868714D01*
X130576095Y-84916333D01*
X130480857Y-84916333D01*
X130385619Y-84868714D01*
X130338000Y-84821095D01*
X130290380Y-84725857D01*
X130290380Y-84487761D01*
X130338000Y-84344904D01*
X130290380Y-84011571D02*
X131290380Y-83773476D01*
X130576095Y-83583000D01*
X131290380Y-83392523D01*
X130290380Y-83154428D01*
X131290380Y-82249666D02*
X131290380Y-82821095D01*
X131290380Y-82535380D02*
X130290380Y-82535380D01*
X130433238Y-82630619D01*
X130528476Y-82725857D01*
X130576095Y-82821095D01*
%TO.C,U1*%
X118745095Y-72525380D02*
X118745095Y-73334904D01*
X118792714Y-73430142D01*
X118840333Y-73477761D01*
X118935571Y-73525380D01*
X119126047Y-73525380D01*
X119221285Y-73477761D01*
X119268904Y-73430142D01*
X119316523Y-73334904D01*
X119316523Y-72525380D01*
X120316523Y-73525380D02*
X119745095Y-73525380D01*
X120030809Y-73525380D02*
X120030809Y-72525380D01*
X119935571Y-72668238D01*
X119840333Y-72763476D01*
X119745095Y-72811095D01*
%TD*%
M02*
