%TF.GenerationSoftware,KiCad,Pcbnew,5.1.8-db9833491~88~ubuntu18.04.1*%
%TF.CreationDate,2021-01-02T19:35:10+01:00*%
%TF.ProjectId,Breadboard_power_supply,42726561-6462-46f6-9172-645f706f7765,Rev A*%
%TF.SameCoordinates,Original*%
%TF.FileFunction,Soldermask,Bot*%
%TF.FilePolarity,Negative*%
%FSLAX46Y46*%
G04 Gerber Fmt 4.6, Leading zero omitted, Abs format (unit mm)*
G04 Created by KiCad (PCBNEW 5.1.8-db9833491~88~ubuntu18.04.1) date 2021-01-02 19:35:10*
%MOMM*%
%LPD*%
G01*
G04 APERTURE LIST*
%ADD10R,1.600000X1.600000*%
%ADD11C,1.600000*%
%ADD12R,2.000000X2.000000*%
%ADD13C,2.000000*%
%ADD14O,2.200000X2.200000*%
%ADD15R,2.200000X2.200000*%
%ADD16C,1.800000*%
%ADD17R,1.800000X1.800000*%
%ADD18R,2.600000X2.600000*%
%ADD19C,2.600000*%
%ADD20R,1.700000X1.700000*%
%ADD21O,1.700000X1.700000*%
%ADD22O,1.600000X1.600000*%
%ADD23R,1.900000X1.900000*%
%ADD24C,1.900000*%
%ADD25R,1.905000X2.000000*%
%ADD26O,1.905000X2.000000*%
G04 APERTURE END LIST*
D10*
%TO.C,C1*%
X128016000Y-64262000D03*
D11*
X130516000Y-64262000D03*
%TD*%
D12*
%TO.C,C2*%
X116840000Y-66040000D03*
D13*
X121840000Y-66040000D03*
%TD*%
D14*
%TO.C,D1*%
X116078000Y-92837000D03*
D15*
X126238000Y-92837000D03*
%TD*%
%TO.C,D2*%
X116078000Y-83439000D03*
D14*
X126238000Y-83439000D03*
%TD*%
D15*
%TO.C,D3*%
X116078000Y-97536000D03*
D14*
X126238000Y-97536000D03*
%TD*%
%TO.C,D4*%
X126238000Y-88138000D03*
D15*
X116078000Y-88138000D03*
%TD*%
D16*
%TO.C,D5*%
X135509000Y-94361000D03*
D17*
X132969000Y-94361000D03*
%TD*%
%TO.C,D6*%
X132969000Y-73025000D03*
D16*
X135509000Y-73025000D03*
%TD*%
D18*
%TO.C,J1*%
X127889000Y-105791000D03*
D19*
X121889000Y-105791000D03*
X124889000Y-110491000D03*
%TD*%
D20*
%TO.C,J2*%
X139573000Y-62230000D03*
D21*
X142113000Y-62230000D03*
X139573000Y-64770000D03*
X142113000Y-64770000D03*
%TD*%
%TO.C,J3*%
X142113000Y-109755000D03*
X139573000Y-109755000D03*
X142113000Y-107215000D03*
D20*
X139573000Y-107215000D03*
%TD*%
D22*
%TO.C,R1*%
X133350000Y-108839000D03*
D11*
X133350000Y-101219000D03*
%TD*%
%TO.C,R2*%
X127635000Y-79502000D03*
D22*
X127635000Y-71882000D03*
%TD*%
D23*
%TO.C,SW1*%
X133858000Y-86073000D03*
D24*
X133858000Y-83573000D03*
X133858000Y-81073000D03*
%TD*%
D25*
%TO.C,U1*%
X116967000Y-77343000D03*
D26*
X119507000Y-77343000D03*
X122047000Y-77343000D03*
%TD*%
M02*
